<svg width="980" height="504" viewBox="0 0 980 504" version="1.1" xmlns="http://www.w3.org/2000/svg" xmlns:xlink="http://www.w3.org/1999/xlink">
<title>Frame</title>
<desc>Created using Figma</desc>
<g id="Canvas" transform="matrix(2 0 0 2 1208 694)">
<clipPath id="clip-0" clip-rule="evenodd">
<path d="M -604 -347L -114 -347L -114 -95L -604 -95L -604 -347Z" fill="#FFFFFF"/>
</clipPath>
<g id="Frame" clip-path="url(#clip-0)">
<path d="M -604 -347L -114 -347L -114 -95L -604 -95L -604 -347Z" fill="#FFFFFF"/>
<g id="Rectangle">
<use xlink:href="#path0_fill" transform="translate(-567 -316)" fill="#56CCF2"/>
<mask id="mask0_outline_ins">
<use xlink:href="#path0_fill" fill="white" transform="translate(-567 -316)"/>
</mask>
<g mask="url(#mask0_outline_ins)">
<use xlink:href="#path1_stroke_2x" transform="translate(-567 -316)"/>
</g>
</g>
<g id="Line">
<use xlink:href="#path2_stroke" transform="translate(-567 -293)"/>
</g>
<g id="Line">
<use xlink:href="#path2_stroke" transform="translate(-567 -269)"/>
</g>
<g id="Line">
<use xlink:href="#path2_stroke" transform="translate(-567 -245)"/>
</g>
<g id="Line">
<use xlink:href="#path2_stroke" transform="translate(-567 -221)"/>
</g>
<g id="Line">
<use xlink:href="#path2_stroke" transform="translate(-567 -196)"/>
</g>
<g id="Line">
<use xlink:href="#path2_stroke" transform="translate(-567 -173)"/>
</g>
<g id="Line">
<use xlink:href="#path2_stroke" transform="translate(-567 -148)"/>
</g>
<g id="6 16 70 34 55 2 8">
<use xlink:href="#path3_fill" transform="translate(-551 -316)"/>
</g>
<g id="Rectangle">
<use xlink:href="#path0_fill" transform="translate(-430 -316)" fill="#C4C4C4"/>
<mask id="mask1_outline_ins">
<use xlink:href="#path0_fill" fill="white" transform="translate(-430 -316)"/>
</mask>
<g mask="url(#mask1_outline_ins)">
<use xlink:href="#path1_stroke_2x" transform="translate(-430 -316)"/>
</g>
</g>
<g id="Line">
<use xlink:href="#path2_stroke" transform="translate(-430 -293)"/>
</g>
<g id="Line">
<use xlink:href="#path2_stroke" transform="translate(-430 -269)"/>
</g>
<g id="Line">
<use xlink:href="#path2_stroke" transform="translate(-430 -245)"/>
</g>
<g id="Line">
<use xlink:href="#path2_stroke" transform="translate(-430 -221)"/>
</g>
<g id="Line">
<use xlink:href="#path2_stroke" transform="translate(-430 -196)"/>
</g>
<g id="Line">
<use xlink:href="#path2_stroke" transform="translate(-430 -173)"/>
</g>
<g id="Line">
<use xlink:href="#path2_stroke" transform="translate(-430 -148)"/>
</g>
<g id="6 16 70 34 55 -0.5 2 8">
<use xlink:href="#path4_fill" transform="translate(-419 -316)"/>
</g>
<g id="Rectangle">
<use xlink:href="#path0_fill" transform="translate(-430 -316)" fill="#56CCF2"/>
<mask id="mask2_outline_ins">
<use xlink:href="#path0_fill" fill="white" transform="translate(-430 -316)"/>
</mask>
<g mask="url(#mask2_outline_ins)">
<use xlink:href="#path1_stroke_2x" transform="translate(-430 -316)"/>
</g>
</g>
<g id="Line">
<use xlink:href="#path2_stroke" transform="translate(-430 -293)"/>
</g>
<g id="Line">
<use xlink:href="#path2_stroke" transform="translate(-430 -269)"/>
</g>
<g id="Line">
<use xlink:href="#path2_stroke" transform="translate(-430 -245)"/>
</g>
<g id="Line">
<use xlink:href="#path2_stroke" transform="translate(-430 -221)"/>
</g>
<g id="Line">
<use xlink:href="#path2_stroke" transform="translate(-430 -196)"/>
</g>
<g id="Line">
<use xlink:href="#path2_stroke" transform="translate(-430 -173)"/>
</g>
<g id="Line">
<use xlink:href="#path2_stroke" transform="translate(-430 -148)"/>
</g>
<g id="6 16 70 34 55 -0.5 2 8">
<use xlink:href="#path4_fill" transform="translate(-419 -316)"/>
</g>
<g id="Rectangle">
<use xlink:href="#path5_fill" transform="translate(-293 -316)" fill="#56CCF2"/>
<mask id="mask3_outline_ins">
<use xlink:href="#path5_fill" fill="white" transform="translate(-293 -316)"/>
</mask>
<g mask="url(#mask3_outline_ins)">
<use xlink:href="#path6_stroke_2x" transform="translate(-293 -316)"/>
</g>
</g>
<g id="Line">
<use xlink:href="#path7_stroke" transform="translate(-293 -293)"/>
</g>
<g id="Line">
<use xlink:href="#path7_stroke" transform="translate(-293 -269)"/>
</g>
<g id="Line">
<use xlink:href="#path7_stroke" transform="translate(-293 -245)"/>
</g>
<g id="Line">
<use xlink:href="#path7_stroke" transform="translate(-293 -221)"/>
</g>
<g id="Line">
<use xlink:href="#path7_stroke" transform="translate(-293 -196)"/>
</g>
<g id="Line">
<use xlink:href="#path7_stroke" transform="translate(-293 -173)"/>
</g>
<g id="Line">
<use xlink:href="#path7_stroke" transform="translate(-293 -148)"/>
</g>
<g id="Child Child Adult Adult Adult Missing Child Child">
<use xlink:href="#path8_fill" transform="translate(-275 -316)"/>
</g>
<g id="Arrow">
<use xlink:href="#path9_stroke" transform="translate(-494 -221)"/>
</g>
<g id="Arrow">
<use xlink:href="#path9_stroke" transform="translate(-354 -221)"/>
</g>
<g id="Fill missing values">
<use xlink:href="#path10_fill" transform="translate(-494 -189)" fill="#4F4F4F"/>
</g>
<g id="Convert values to categories">
<use xlink:href="#path11_fill" transform="translate(-365 -189)" fill="#4F4F4F"/>
</g>
</g>
</g>
<defs>
<path id="path0_fill" d="M 0 0L 53 0L 53 190L 0 190L 0 0Z"/>
<path id="path1_stroke_2x" d="M 0 0L 0 -1L -1 -1L -1 0L 0 0ZM 53 0L 54 0L 54 -1L 53 -1L 53 0ZM 53 190L 53 191L 54 191L 54 190L 53 190ZM 0 190L -1 190L -1 191L 0 191L 0 190ZM 0 1L 53 1L 53 -1L 0 -1L 0 1ZM 52 0L 52 190L 54 190L 54 0L 52 0ZM 53 189L 0 189L 0 191L 53 191L 53 189ZM 1 190L 1 0L -1 0L -1 190L 1 190Z"/>
<path id="path2_stroke" d="M 0 0L 53 0L 53 -1L 0 -1L 0 0Z"/>
<path id="path3_fill" d="M 12.8906 4.19434L 12.8906 5.57422L 12.5918 5.57422C 11.3262 5.59766 10.3184 5.97266 9.56836 6.69922C 8.81836 7.42578 8.38477 8.44824 8.26758 9.7666C 8.94141 8.99316 9.86133 8.60645 11.0273 8.60645C 12.1406 8.60645 13.0283 8.99902 13.6904 9.78418C 14.3584 10.5693 14.6924 11.583 14.6924 12.8252C 14.6924 14.1436 14.332 15.1982 13.6113 15.9893C 12.8965 16.7803 11.9355 17.1758 10.7285 17.1758C 9.50391 17.1758 8.51074 16.707 7.74902 15.7695C 6.9873 14.8262 6.60645 13.6133 6.60645 12.1309L 6.60645 11.5068C 6.60645 9.15137 7.10742 7.35254 8.10938 6.11035C 9.11719 4.8623 10.6143 4.22363 12.6006 4.19434L 12.8906 4.19434ZM 10.7549 9.95996C 10.1982 9.95996 9.68555 10.127 9.2168 10.4609C 8.74805 10.7949 8.42285 11.2139 8.24121 11.7178L 8.24121 12.3154C 8.24121 13.3701 8.47852 14.2197 8.95312 14.8643C 9.42773 15.5088 10.0195 15.8311 10.7285 15.8311C 11.4609 15.8311 12.0352 15.5615 12.4512 15.0225C 12.873 14.4834 13.084 13.7773 13.084 12.9043C 13.084 12.0254 12.8701 11.3164 12.4424 10.7773C 12.0205 10.2324 11.458 9.95996 10.7549 9.95996ZM 6.7998 41L 5.16504 41L 5.16504 30.1631L 1.88672 31.3672L 1.88672 29.8906L 6.54492 28.1416L 6.7998 28.1416L 6.7998 41ZM 17.9443 28.1943L 17.9443 29.5742L 17.6455 29.5742C 16.3799 29.5977 15.3721 29.9727 14.6221 30.6992C 13.8721 31.4258 13.4385 32.4482 13.3213 33.7666C 13.9951 32.9932 14.915 32.6064 16.0811 32.6064C 17.1943 32.6064 18.082 32.999 18.7441 33.7842C 19.4121 34.5693 19.7461 35.583 19.7461 36.8252C 19.7461 38.1436 19.3857 39.1982 18.665 39.9893C 17.9502 40.7803 16.9893 41.1758 15.7822 41.1758C 14.5576 41.1758 13.5645 40.707 12.8027 39.7695C 12.041 38.8262 11.6602 37.6133 11.6602 36.1309L 11.6602 35.5068C 11.6602 33.1514 12.1611 31.3525 13.1631 30.1104C 14.1709 28.8623 15.668 28.2236 17.6543 28.1943L 17.9443 28.1943ZM 15.8086 33.96C 15.252 33.96 14.7393 34.127 14.2705 34.4609C 13.8018 34.7949 13.4766 35.2139 13.2949 35.7178L 13.2949 36.3154C 13.2949 37.3701 13.5322 38.2197 14.0068 38.8643C 14.4814 39.5088 15.0732 39.8311 15.7822 39.8311C 16.5146 39.8311 17.0889 39.5615 17.5049 39.0225C 17.9268 38.4834 18.1377 37.7773 18.1377 36.9043C 18.1377 36.0254 17.9238 35.3164 17.4961 34.7773C 17.0742 34.2324 16.5117 33.96 15.8086 33.96ZM 9.71777 53.1172L 4.41797 65L 2.71289 65L 7.99512 53.5391L 1.06934 53.5391L 1.06934 52.2031L 9.71777 52.2031L 9.71777 53.1172ZM 19.5879 59.542C 19.5879 61.4463 19.2627 62.8613 18.6123 63.7871C 17.9619 64.7129 16.9453 65.1758 15.5625 65.1758C 14.1973 65.1758 13.1865 64.7246 12.5303 63.8223C 11.874 62.9141 11.5342 61.5605 11.5107 59.7617L 11.5107 57.5908C 11.5107 55.71 11.8359 54.3125 12.4863 53.3984C 13.1367 52.4844 14.1562 52.0273 15.5449 52.0273C 16.9219 52.0273 17.9355 52.4697 18.5859 53.3545C 19.2363 54.2334 19.5703 55.5928 19.5879 57.4326L 19.5879 59.542ZM 17.9619 57.3184C 17.9619 55.9414 17.7686 54.9395 17.3818 54.3125C 16.9951 53.6797 16.3828 53.3633 15.5449 53.3633C 14.7129 53.3633 14.1064 53.6768 13.7256 54.3037C 13.3447 54.9307 13.1484 55.8945 13.1367 57.1953L 13.1367 59.7969C 13.1367 61.1797 13.3359 62.2021 13.7344 62.8643C 14.1387 63.5205 14.748 63.8486 15.5625 63.8486C 16.3652 63.8486 16.96 63.5381 17.3467 62.917C 17.7393 62.2959 17.9443 61.3174 17.9619 59.9814L 17.9619 57.3184ZM 3.82031 81.8105L 5.04199 81.8105C 5.80957 81.7988 6.41309 81.5967 6.85254 81.2041C 7.29199 80.8115 7.51172 80.2812 7.51172 79.6133C 7.51172 78.1133 6.76465 77.3633 5.27051 77.3633C 4.56738 77.3633 4.00488 77.5654 3.58301 77.9697C 3.16699 78.3682 2.95898 78.8984 2.95898 79.5605L 1.33301 79.5605C 1.33301 78.5469 1.70215 77.7061 2.44043 77.0381C 3.18457 76.3643 4.12793 76.0273 5.27051 76.0273C 6.47754 76.0273 7.42383 76.3467 8.10938 76.9854C 8.79492 77.624 9.1377 78.5117 9.1377 79.6484C 9.1377 80.2051 8.95605 80.7441 8.59277 81.2656C 8.23535 81.7871 7.74609 82.1768 7.125 82.4346C 7.82812 82.6572 8.37012 83.0264 8.75098 83.542C 9.1377 84.0576 9.33105 84.6875 9.33105 85.4316C 9.33105 86.5801 8.95605 87.4912 8.20605 88.165C 7.45605 88.8389 6.48047 89.1758 5.2793 89.1758C 4.07813 89.1758 3.09961 88.8506 2.34375 88.2002C 1.59375 87.5498 1.21875 86.6914 1.21875 85.625L 2.85352 85.625C 2.85352 86.2988 3.07324 86.8379 3.5127 87.2422C 3.95215 87.6465 4.54102 87.8486 5.2793 87.8486C 6.06445 87.8486 6.66504 87.6436 7.08105 87.2334C 7.49707 86.8232 7.70508 86.2344 7.70508 85.4668C 7.70508 84.7227 7.47656 84.1514 7.01953 83.7529C 6.5625 83.3545 5.90332 83.1494 5.04199 83.1377L 3.82031 83.1377L 3.82031 81.8105ZM 18.4277 84.7021L 20.2031 84.7021L 20.2031 86.0293L 18.4277 86.0293L 18.4277 89L 16.793 89L 16.793 86.0293L 10.9658 86.0293L 10.9658 85.0713L 16.6963 76.2031L 18.4277 76.2031L 18.4277 84.7021ZM 12.8115 84.7021L 16.793 84.7021L 16.793 78.4268L 16.5996 78.7783L 12.8115 84.7021ZM 2.20312 106.584L 2.85352 100.203L 9.41016 100.203L 9.41016 101.706L 4.2334 101.706L 3.84668 105.195C 4.47363 104.826 5.18555 104.642 5.98242 104.642C 7.14844 104.642 8.07422 105.028 8.75977 105.802C 9.44531 106.569 9.78809 107.609 9.78809 108.922C 9.78809 110.24 9.43066 111.28 8.71582 112.042C 8.00684 112.798 7.01367 113.176 5.73633 113.176C 4.60547 113.176 3.68262 112.862 2.96777 112.235C 2.25293 111.608 1.8457 110.741 1.74609 109.634L 3.28418 109.634C 3.38379 110.366 3.64453 110.92 4.06641 111.295C 4.48828 111.664 5.04492 111.849 5.73633 111.849C 6.49219 111.849 7.08398 111.591 7.51172 111.075C 7.94531 110.56 8.16211 109.848 8.16211 108.939C 8.16211 108.084 7.92773 107.398 7.45898 106.883C 6.99609 106.361 6.37793 106.101 5.60449 106.101C 4.89551 106.101 4.33887 106.256 3.93457 106.566L 3.50391 106.918L 2.20312 106.584ZM 12.3105 106.584L 12.9609 100.203L 19.5176 100.203L 19.5176 101.706L 14.3408 101.706L 13.9541 105.195C 14.5811 104.826 15.293 104.642 16.0898 104.642C 17.2559 104.642 18.1816 105.028 18.8672 105.802C 19.5527 106.569 19.8955 107.609 19.8955 108.922C 19.8955 110.24 19.5381 111.28 18.8232 112.042C 18.1143 112.798 17.1211 113.176 15.8438 113.176C 14.7129 113.176 13.79 112.862 13.0752 112.235C 12.3604 111.608 11.9531 110.741 11.8535 109.634L 13.3916 109.634C 13.4912 110.366 13.752 110.92 14.1738 111.295C 14.5957 111.664 15.1523 111.849 15.8438 111.849C 16.5996 111.849 17.1914 111.591 17.6191 111.075C 18.0527 110.56 18.2695 109.848 18.2695 108.939C 18.2695 108.084 18.0352 107.398 17.5664 106.883C 17.1035 106.361 16.4854 106.101 15.7119 106.101C 15.0029 106.101 14.4463 106.256 14.042 106.566L 13.6113 106.918L 12.3105 106.584ZM 14.8945 161L 6.50977 161L 6.50977 159.831L 10.9395 154.909C 11.5957 154.165 12.0469 153.562 12.293 153.099C 12.5449 152.63 12.6709 152.146 12.6709 151.648C 12.6709 150.98 12.4688 150.433 12.0645 150.005C 11.6602 149.577 11.1211 149.363 10.4473 149.363C 9.63867 149.363 9.00879 149.595 8.55762 150.058C 8.1123 150.515 7.88965 151.153 7.88965 151.974L 6.26367 151.974C 6.26367 150.796 6.6416 149.844 7.39746 149.117C 8.15918 148.391 9.17578 148.027 10.4473 148.027C 11.6367 148.027 12.5771 148.341 13.2686 148.968C 13.96 149.589 14.3057 150.418 14.3057 151.455C 14.3057 152.715 13.5029 154.215 11.8975 155.955L 8.46973 159.673L 14.8945 159.673L 14.8945 161ZM 14.2705 175.543C 14.2705 176.182 14.1006 176.75 13.7607 177.248C 13.4268 177.746 12.9727 178.136 12.3984 178.417C 13.0664 178.704 13.5938 179.123 13.9805 179.674C 14.373 180.225 14.5693 180.849 14.5693 181.546C 14.5693 182.653 14.1943 183.535 13.4443 184.191C 12.7002 184.848 11.7188 185.176 10.5 185.176C 9.26953 185.176 8.28223 184.848 7.53809 184.191C 6.7998 183.529 6.43066 182.647 6.43066 181.546C 6.43066 180.854 6.61816 180.23 6.99316 179.674C 7.37402 179.117 7.89844 178.695 8.56641 178.408C 7.99805 178.127 7.5498 177.737 7.22168 177.239C 6.89355 176.741 6.72949 176.176 6.72949 175.543C 6.72949 174.465 7.0752 173.609 7.7666 172.977C 8.45801 172.344 9.36914 172.027 10.5 172.027C 11.625 172.027 12.5332 172.344 13.2246 172.977C 13.9219 173.609 14.2705 174.465 14.2705 175.543ZM 12.9434 181.511C 12.9434 180.796 12.7148 180.213 12.2578 179.762C 11.8066 179.311 11.2148 179.085 10.4824 179.085C 9.75 179.085 9.16113 179.308 8.71582 179.753C 8.27637 180.198 8.05664 180.784 8.05664 181.511C 8.05664 182.237 8.27051 182.809 8.69824 183.225C 9.13184 183.641 9.73242 183.849 10.5 183.849C 11.2617 183.849 11.8594 183.641 12.293 183.225C 12.7266 182.803 12.9434 182.231 12.9434 181.511ZM 10.5 173.363C 9.86133 173.363 9.34277 173.562 8.94434 173.961C 8.55176 174.354 8.35547 174.89 8.35547 175.569C 8.35547 176.22 8.54883 176.747 8.93555 177.151C 9.32812 177.55 9.84961 177.749 10.5 177.749C 11.1504 177.749 11.6689 177.55 12.0557 177.151C 12.4482 176.747 12.6445 176.22 12.6445 175.569C 12.6445 174.919 12.4424 174.389 12.0381 173.979C 11.6338 173.568 11.1211 173.363 10.5 173.363Z"/>
<path id="path4_fill" d="M 17.3906 4.19434L 17.3906 5.57422L 17.0918 5.57422C 15.8262 5.59766 14.8184 5.97266 14.0684 6.69922C 13.3184 7.42578 12.8848 8.44824 12.7676 9.7666C 13.4414 8.99316 14.3613 8.60645 15.5273 8.60645C 16.6406 8.60645 17.5283 8.99902 18.1904 9.78418C 18.8584 10.5693 19.1924 11.583 19.1924 12.8252C 19.1924 14.1436 18.832 15.1982 18.1113 15.9893C 17.3965 16.7803 16.4355 17.1758 15.2285 17.1758C 14.0039 17.1758 13.0107 16.707 12.249 15.7695C 11.4873 14.8262 11.1064 13.6133 11.1064 12.1309L 11.1064 11.5068C 11.1064 9.15137 11.6074 7.35254 12.6094 6.11035C 13.6172 4.8623 15.1143 4.22363 17.1006 4.19434L 17.3906 4.19434ZM 15.2549 9.95996C 14.6982 9.95996 14.1855 10.127 13.7168 10.4609C 13.248 10.7949 12.9229 11.2139 12.7412 11.7178L 12.7412 12.3154C 12.7412 13.3701 12.9785 14.2197 13.4531 14.8643C 13.9277 15.5088 14.5195 15.8311 15.2285 15.8311C 15.9609 15.8311 16.5352 15.5615 16.9512 15.0225C 17.373 14.4834 17.584 13.7773 17.584 12.9043C 17.584 12.0254 17.3701 11.3164 16.9424 10.7773C 16.5205 10.2324 15.958 9.95996 15.2549 9.95996ZM 11.2998 41L 9.66504 41L 9.66504 30.1631L 6.38672 31.3672L 6.38672 29.8906L 11.0449 28.1416L 11.2998 28.1416L 11.2998 41ZM 22.4443 28.1943L 22.4443 29.5742L 22.1455 29.5742C 20.8799 29.5977 19.8721 29.9727 19.1221 30.6992C 18.3721 31.4258 17.9385 32.4482 17.8213 33.7666C 18.4951 32.9932 19.415 32.6064 20.5811 32.6064C 21.6943 32.6064 22.582 32.999 23.2441 33.7842C 23.9121 34.5693 24.2461 35.583 24.2461 36.8252C 24.2461 38.1436 23.8857 39.1982 23.165 39.9893C 22.4502 40.7803 21.4893 41.1758 20.2822 41.1758C 19.0576 41.1758 18.0645 40.707 17.3027 39.7695C 16.541 38.8262 16.1602 37.6133 16.1602 36.1309L 16.1602 35.5068C 16.1602 33.1514 16.6611 31.3525 17.6631 30.1104C 18.6709 28.8623 20.168 28.2236 22.1543 28.1943L 22.4443 28.1943ZM 20.3086 33.96C 19.752 33.96 19.2393 34.127 18.7705 34.4609C 18.3018 34.7949 17.9766 35.2139 17.7949 35.7178L 17.7949 36.3154C 17.7949 37.3701 18.0322 38.2197 18.5068 38.8643C 18.9814 39.5088 19.5732 39.8311 20.2822 39.8311C 21.0146 39.8311 21.5889 39.5615 22.0049 39.0225C 22.4268 38.4834 22.6377 37.7773 22.6377 36.9043C 22.6377 36.0254 22.4238 35.3164 21.9961 34.7773C 21.5742 34.2324 21.0117 33.96 20.3086 33.96ZM 14.2178 53.1172L 8.91797 65L 7.21289 65L 12.4951 53.5391L 5.56934 53.5391L 5.56934 52.2031L 14.2178 52.2031L 14.2178 53.1172ZM 24.0879 59.542C 24.0879 61.4463 23.7627 62.8613 23.1123 63.7871C 22.4619 64.7129 21.4453 65.1758 20.0625 65.1758C 18.6973 65.1758 17.6865 64.7246 17.0303 63.8223C 16.374 62.9141 16.0342 61.5605 16.0107 59.7617L 16.0107 57.5908C 16.0107 55.71 16.3359 54.3125 16.9863 53.3984C 17.6367 52.4844 18.6562 52.0273 20.0449 52.0273C 21.4219 52.0273 22.4355 52.4697 23.0859 53.3545C 23.7363 54.2334 24.0703 55.5928 24.0879 57.4326L 24.0879 59.542ZM 22.4619 57.3184C 22.4619 55.9414 22.2686 54.9395 21.8818 54.3125C 21.4951 53.6797 20.8828 53.3633 20.0449 53.3633C 19.2129 53.3633 18.6064 53.6768 18.2256 54.3037C 17.8447 54.9307 17.6484 55.8945 17.6367 57.1953L 17.6367 59.7969C 17.6367 61.1797 17.8359 62.2021 18.2344 62.8643C 18.6387 63.5205 19.248 63.8486 20.0625 63.8486C 20.8652 63.8486 21.46 63.5381 21.8467 62.917C 22.2393 62.2959 22.4443 61.3174 22.4619 59.9814L 22.4619 57.3184ZM 8.32031 81.8105L 9.54199 81.8105C 10.3096 81.7988 10.9131 81.5967 11.3525 81.2041C 11.792 80.8115 12.0117 80.2812 12.0117 79.6133C 12.0117 78.1133 11.2646 77.3633 9.77051 77.3633C 9.06738 77.3633 8.50488 77.5654 8.08301 77.9697C 7.66699 78.3682 7.45898 78.8984 7.45898 79.5605L 5.83301 79.5605C 5.83301 78.5469 6.20215 77.7061 6.94043 77.0381C 7.68457 76.3643 8.62793 76.0273 9.77051 76.0273C 10.9775 76.0273 11.9238 76.3467 12.6094 76.9854C 13.2949 77.624 13.6377 78.5117 13.6377 79.6484C 13.6377 80.2051 13.4561 80.7441 13.0928 81.2656C 12.7354 81.7871 12.2461 82.1768 11.625 82.4346C 12.3281 82.6572 12.8701 83.0264 13.251 83.542C 13.6377 84.0576 13.8311 84.6875 13.8311 85.4316C 13.8311 86.5801 13.4561 87.4912 12.7061 88.165C 11.9561 88.8389 10.9805 89.1758 9.7793 89.1758C 8.57813 89.1758 7.59961 88.8506 6.84375 88.2002C 6.09375 87.5498 5.71875 86.6914 5.71875 85.625L 7.35352 85.625C 7.35352 86.2988 7.57324 86.8379 8.0127 87.2422C 8.45215 87.6465 9.04102 87.8486 9.7793 87.8486C 10.5645 87.8486 11.165 87.6436 11.5811 87.2334C 11.9971 86.8232 12.2051 86.2344 12.2051 85.4668C 12.2051 84.7227 11.9766 84.1514 11.5195 83.7529C 11.0625 83.3545 10.4033 83.1494 9.54199 83.1377L 8.32031 83.1377L 8.32031 81.8105ZM 22.9277 84.7021L 24.7031 84.7021L 24.7031 86.0293L 22.9277 86.0293L 22.9277 89L 21.293 89L 21.293 86.0293L 15.4658 86.0293L 15.4658 85.0713L 21.1963 76.2031L 22.9277 76.2031L 22.9277 84.7021ZM 17.3115 84.7021L 21.293 84.7021L 21.293 78.4268L 21.0996 78.7783L 17.3115 84.7021ZM 6.70312 106.584L 7.35352 100.203L 13.9102 100.203L 13.9102 101.706L 8.7334 101.706L 8.34668 105.195C 8.97363 104.826 9.68555 104.642 10.4824 104.642C 11.6484 104.642 12.5742 105.028 13.2598 105.802C 13.9453 106.569 14.2881 107.609 14.2881 108.922C 14.2881 110.24 13.9307 111.28 13.2158 112.042C 12.5068 112.798 11.5137 113.176 10.2363 113.176C 9.10547 113.176 8.18262 112.862 7.46777 112.235C 6.75293 111.608 6.3457 110.741 6.24609 109.634L 7.78418 109.634C 7.88379 110.366 8.14453 110.92 8.56641 111.295C 8.98828 111.664 9.54492 111.849 10.2363 111.849C 10.9922 111.849 11.584 111.591 12.0117 111.075C 12.4453 110.56 12.6621 109.848 12.6621 108.939C 12.6621 108.084 12.4277 107.398 11.959 106.883C 11.4961 106.361 10.8779 106.101 10.1045 106.101C 9.39551 106.101 8.83887 106.256 8.43457 106.566L 8.00391 106.918L 6.70312 106.584ZM 16.8105 106.584L 17.4609 100.203L 24.0176 100.203L 24.0176 101.706L 18.8408 101.706L 18.4541 105.195C 19.0811 104.826 19.793 104.642 20.5898 104.642C 21.7559 104.642 22.6816 105.028 23.3672 105.802C 24.0527 106.569 24.3955 107.609 24.3955 108.922C 24.3955 110.24 24.0381 111.28 23.3232 112.042C 22.6143 112.798 21.6211 113.176 20.3438 113.176C 19.2129 113.176 18.29 112.862 17.5752 112.235C 16.8604 111.608 16.4531 110.741 16.3535 109.634L 17.8916 109.634C 17.9912 110.366 18.252 110.92 18.6738 111.295C 19.0957 111.664 19.6523 111.849 20.3438 111.849C 21.0996 111.849 21.6914 111.591 22.1191 111.075C 22.5527 110.56 22.7695 109.848 22.7695 108.939C 22.7695 108.084 22.5352 107.398 22.0664 106.883C 21.6035 106.361 20.9854 106.101 20.2119 106.101C 19.5029 106.101 18.9463 106.256 18.542 106.566L 18.1113 106.918L 16.8105 106.584ZM 4.64648 132.228L 0.357422 132.228L 0.357422 130.9L 4.64648 130.9L 4.64648 132.228ZM 14.0947 131.542C 14.0947 133.446 13.7695 134.861 13.1191 135.787C 12.4688 136.713 11.4521 137.176 10.0693 137.176C 8.7041 137.176 7.69336 136.725 7.03711 135.822C 6.38086 134.914 6.04102 133.561 6.01758 131.762L 6.01758 129.591C 6.01758 127.71 6.34277 126.312 6.99316 125.398C 7.64355 124.484 8.66309 124.027 10.0518 124.027C 11.4287 124.027 12.4424 124.47 13.0928 125.354C 13.7432 126.233 14.0771 127.593 14.0947 129.433L 14.0947 131.542ZM 12.4688 129.318C 12.4688 127.941 12.2754 126.939 11.8887 126.312C 11.502 125.68 10.8896 125.363 10.0518 125.363C 9.21973 125.363 8.61328 125.677 8.23242 126.304C 7.85156 126.931 7.65527 127.895 7.64355 129.195L 7.64355 131.797C 7.64355 133.18 7.84277 134.202 8.24121 134.864C 8.64551 135.521 9.25488 135.849 10.0693 135.849C 10.8721 135.849 11.4668 135.538 11.8535 134.917C 12.2461 134.296 12.4512 133.317 12.4688 131.981L 12.4688 129.318ZM 16.3799 136.147C 16.3799 135.866 16.4619 135.632 16.626 135.444C 16.7959 135.257 17.0479 135.163 17.3818 135.163C 17.7158 135.163 17.9678 135.257 18.1377 135.444C 18.3135 135.632 18.4014 135.866 18.4014 136.147C 18.4014 136.417 18.3135 136.643 18.1377 136.824C 17.9678 137.006 17.7158 137.097 17.3818 137.097C 17.0479 137.097 16.7959 137.006 16.626 136.824C 16.4619 136.643 16.3799 136.417 16.3799 136.147ZM 21.6709 130.584L 22.3213 124.203L 28.8779 124.203L 28.8779 125.706L 23.7012 125.706L 23.3145 129.195C 23.9414 128.826 24.6533 128.642 25.4502 128.642C 26.6162 128.642 27.542 129.028 28.2275 129.802C 28.9131 130.569 29.2559 131.609 29.2559 132.922C 29.2559 134.24 28.8984 135.28 28.1836 136.042C 27.4746 136.798 26.4814 137.176 25.2041 137.176C 24.0732 137.176 23.1504 136.862 22.4355 136.235C 21.7207 135.608 21.3135 134.741 21.2139 133.634L 22.752 133.634C 22.8516 134.366 23.1123 134.92 23.5342 135.295C 23.9561 135.664 24.5127 135.849 25.2041 135.849C 25.96 135.849 26.5518 135.591 26.9795 135.075C 27.4131 134.56 27.6299 133.848 27.6299 132.939C 27.6299 132.084 27.3955 131.398 26.9268 130.883C 26.4639 130.361 25.8457 130.101 25.0723 130.101C 24.3633 130.101 23.8066 130.256 23.4023 130.566L 22.9717 130.918L 21.6709 130.584ZM 19.3945 161L 11.0098 161L 11.0098 159.831L 15.4395 154.909C 16.0957 154.165 16.5469 153.562 16.793 153.099C 17.0449 152.63 17.1709 152.146 17.1709 151.648C 17.1709 150.98 16.9688 150.433 16.5645 150.005C 16.1602 149.577 15.6211 149.363 14.9473 149.363C 14.1387 149.363 13.5088 149.595 13.0576 150.058C 12.6123 150.515 12.3896 151.153 12.3896 151.974L 10.7637 151.974C 10.7637 150.796 11.1416 149.844 11.8975 149.117C 12.6592 148.391 13.6758 148.027 14.9473 148.027C 16.1367 148.027 17.0771 148.341 17.7686 148.968C 18.46 149.589 18.8057 150.418 18.8057 151.455C 18.8057 152.715 18.0029 154.215 16.3975 155.955L 12.9697 159.673L 19.3945 159.673L 19.3945 161ZM 18.7705 175.543C 18.7705 176.182 18.6006 176.75 18.2607 177.248C 17.9268 177.746 17.4727 178.136 16.8984 178.417C 17.5664 178.704 18.0938 179.123 18.4805 179.674C 18.873 180.225 19.0693 180.849 19.0693 181.546C 19.0693 182.653 18.6943 183.535 17.9443 184.191C 17.2002 184.848 16.2188 185.176 15 185.176C 13.7695 185.176 12.7822 184.848 12.0381 184.191C 11.2998 183.529 10.9307 182.647 10.9307 181.546C 10.9307 180.854 11.1182 180.23 11.4932 179.674C 11.874 179.117 12.3984 178.695 13.0664 178.408C 12.498 178.127 12.0498 177.737 11.7217 177.239C 11.3936 176.741 11.2295 176.176 11.2295 175.543C 11.2295 174.465 11.5752 173.609 12.2666 172.977C 12.958 172.344 13.8691 172.027 15 172.027C 16.125 172.027 17.0332 172.344 17.7246 172.977C 18.4219 173.609 18.7705 174.465 18.7705 175.543ZM 17.4434 181.511C 17.4434 180.796 17.2148 180.213 16.7578 179.762C 16.3066 179.311 15.7148 179.085 14.9824 179.085C 14.25 179.085 13.6611 179.308 13.2158 179.753C 12.7764 180.198 12.5566 180.784 12.5566 181.511C 12.5566 182.237 12.7705 182.809 13.1982 183.225C 13.6318 183.641 14.2324 183.849 15 183.849C 15.7617 183.849 16.3594 183.641 16.793 183.225C 17.2266 182.803 17.4434 182.231 17.4434 181.511ZM 15 173.363C 14.3613 173.363 13.8428 173.562 13.4443 173.961C 13.0518 174.354 12.8555 174.89 12.8555 175.569C 12.8555 176.22 13.0488 176.747 13.4355 177.151C 13.8281 177.55 14.3496 177.749 15 177.749C 15.6504 177.749 16.1689 177.55 16.5557 177.151C 16.9482 176.747 17.1445 176.22 17.1445 175.569C 17.1445 174.919 16.9424 174.389 16.5381 173.979C 16.1338 173.568 15.6211 173.363 15 173.363Z"/>
<path id="path5_fill" d="M 0 0L 108 0L 108 190L 0 190L 0 0Z"/>
<path id="path6_stroke_2x" d="M 0 0L 0 -1L -1 -1L -1 0L 0 0ZM 108 0L 109 0L 109 -1L 108 -1L 108 0ZM 108 190L 108 191L 109 191L 109 190L 108 190ZM 0 190L -1 190L -1 191L 0 191L 0 190ZM 0 1L 108 1L 108 -1L 0 -1L 0 1ZM 107 0L 107 190L 109 190L 109 0L 107 0ZM 108 189L 0 189L 0 191L 108 191L 108 189ZM 1 190L 1 0L -1 0L -1 190L 1 190Z"/>
<path id="path7_stroke" d="M 0 0L 108 0L 108 -1L 0 -1L 0 0Z"/>
<path id="path8_fill" d="M 26.6221 12.9395C 26.4639 14.293 25.9629 15.3389 25.1191 16.0771C 24.2813 16.8096 23.165 17.1758 21.7705 17.1758C 20.2588 17.1758 19.0459 16.6338 18.1318 15.5498C 17.2236 14.4658 16.7695 13.0156 16.7695 11.1992L 16.7695 9.96875C 16.7695 8.7793 16.9805 7.7334 17.4023 6.83105C 17.8301 5.92871 18.4336 5.2373 19.2129 4.75684C 19.9922 4.27051 20.8945 4.02734 21.9199 4.02734C 23.2793 4.02734 24.3691 4.4082 25.1895 5.16992C 26.0098 5.92578 26.4873 6.97461 26.6221 8.31641L 24.9258 8.31641C 24.7793 7.29688 24.46 6.55859 23.9678 6.10156C 23.4814 5.64453 22.7988 5.41602 21.9199 5.41602C 20.8418 5.41602 19.9951 5.81445 19.3799 6.61133C 18.7705 7.4082 18.4658 8.54199 18.4658 10.0127L 18.4658 11.252C 18.4658 12.6406 18.7559 13.7451 19.3359 14.5654C 19.916 15.3857 20.7275 15.7959 21.7705 15.7959C 22.708 15.7959 23.4258 15.585 23.9238 15.1631C 24.4277 14.7354 24.7617 13.9941 24.9258 12.9395L 26.6221 12.9395ZM 30.3047 8.6416C 31.0254 7.75684 31.9629 7.31445 33.1172 7.31445C 35.127 7.31445 36.1406 8.44824 36.1582 10.7158L 36.1582 17L 34.5322 17L 34.5322 10.707C 34.5264 10.0215 34.3682 9.51465 34.0576 9.18652C 33.7529 8.8584 33.2754 8.69434 32.625 8.69434C 32.0977 8.69434 31.6348 8.83496 31.2363 9.11621C 30.8379 9.39746 30.5273 9.7666 30.3047 10.2236L 30.3047 17L 28.6787 17L 28.6787 3.5L 30.3047 3.5L 30.3047 8.6416ZM 40.3594 17L 38.7334 17L 38.7334 7.49023L 40.3594 7.49023L 40.3594 17ZM 38.6016 4.96777C 38.6016 4.7041 38.6807 4.48144 38.8389 4.2998C 39.0029 4.11816 39.2432 4.02734 39.5596 4.02734C 39.876 4.02734 40.1162 4.11816 40.2803 4.2998C 40.4443 4.48144 40.5264 4.7041 40.5264 4.96777C 40.5264 5.23145 40.4443 5.45117 40.2803 5.62695C 40.1162 5.80273 39.876 5.89062 39.5596 5.89062C 39.2432 5.89062 39.0029 5.80273 38.8389 5.62695C 38.6807 5.45117 38.6016 5.23145 38.6016 4.96777ZM 44.7363 17L 43.1104 17L 43.1104 3.5L 44.7363 3.5L 44.7363 17ZM 46.9512 12.166C 46.9512 10.707 47.2969 9.53516 47.9883 8.65039C 48.6797 7.75977 49.585 7.31445 50.7041 7.31445C 51.8174 7.31445 52.6992 7.69531 53.3496 8.45703L 53.3496 3.5L 54.9756 3.5L 54.9756 17L 53.4814 17L 53.4023 15.9805C 52.752 16.7773 51.8467 17.1758 50.6865 17.1758C 49.585 17.1758 48.6855 16.7246 47.9883 15.8223C 47.2969 14.9199 46.9512 13.7422 46.9512 12.2891L 46.9512 12.166ZM 48.5771 12.3506C 48.5771 13.4287 48.7998 14.2725 49.2451 14.8818C 49.6904 15.4912 50.3057 15.7959 51.0908 15.7959C 52.1221 15.7959 52.875 15.333 53.3496 14.4072L 53.3496 10.0391C 52.8633 9.14258 52.1162 8.69434 51.1084 8.69434C 50.3115 8.69434 49.6904 9.00195 49.2451 9.61719C 48.7998 10.2324 48.5771 11.1436 48.5771 12.3506ZM 26.6221 36.9395C 26.4639 38.293 25.9629 39.3389 25.1191 40.0771C 24.2813 40.8096 23.165 41.1758 21.7705 41.1758C 20.2588 41.1758 19.0459 40.6338 18.1318 39.5498C 17.2236 38.4658 16.7695 37.0156 16.7695 35.1992L 16.7695 33.9688C 16.7695 32.7793 16.9805 31.7334 17.4023 30.8311C 17.8301 29.9287 18.4336 29.2373 19.2129 28.7568C 19.9922 28.2705 20.8945 28.0273 21.9199 28.0273C 23.2793 28.0273 24.3691 28.4082 25.1895 29.1699C 26.0098 29.9258 26.4873 30.9746 26.6221 32.3164L 24.9258 32.3164C 24.7793 31.2969 24.46 30.5586 23.9678 30.1016C 23.4814 29.6445 22.7988 29.416 21.9199 29.416C 20.8418 29.416 19.9951 29.8145 19.3799 30.6113C 18.7705 31.4082 18.4658 32.542 18.4658 34.0127L 18.4658 35.252C 18.4658 36.6406 18.7559 37.7451 19.3359 38.5654C 19.916 39.3857 20.7275 39.7959 21.7705 39.7959C 22.708 39.7959 23.4258 39.585 23.9238 39.1631C 24.4277 38.7354 24.7617 37.9941 24.9258 36.9395L 26.6221 36.9395ZM 30.3047 32.6416C 31.0254 31.7568 31.9629 31.3145 33.1172 31.3145C 35.127 31.3145 36.1406 32.4482 36.1582 34.7158L 36.1582 41L 34.5322 41L 34.5322 34.707C 34.5264 34.0215 34.3682 33.5146 34.0576 33.1865C 33.7529 32.8584 33.2754 32.6943 32.625 32.6943C 32.0977 32.6943 31.6348 32.835 31.2363 33.1162C 30.8379 33.3975 30.5273 33.7666 30.3047 34.2236L 30.3047 41L 28.6787 41L 28.6787 27.5L 30.3047 27.5L 30.3047 32.6416ZM 40.3594 41L 38.7334 41L 38.7334 31.4902L 40.3594 31.4902L 40.3594 41ZM 38.6016 28.9678C 38.6016 28.7041 38.6807 28.4814 38.8389 28.2998C 39.0029 28.1182 39.2432 28.0273 39.5596 28.0273C 39.876 28.0273 40.1162 28.1182 40.2803 28.2998C 40.4443 28.4814 40.5264 28.7041 40.5264 28.9678C 40.5264 29.2314 40.4443 29.4512 40.2803 29.627C 40.1162 29.8027 39.876 29.8906 39.5596 29.8906C 39.2432 29.8906 39.0029 29.8027 38.8389 29.627C 38.6807 29.4512 38.6016 29.2314 38.6016 28.9678ZM 44.7363 41L 43.1104 41L 43.1104 27.5L 44.7363 27.5L 44.7363 41ZM 46.9512 36.166C 46.9512 34.707 47.2969 33.5352 47.9883 32.6504C 48.6797 31.7598 49.585 31.3145 50.7041 31.3145C 51.8174 31.3145 52.6992 31.6953 53.3496 32.457L 53.3496 27.5L 54.9756 27.5L 54.9756 41L 53.4814 41L 53.4023 39.9805C 52.752 40.7773 51.8467 41.1758 50.6865 41.1758C 49.585 41.1758 48.6855 40.7246 47.9883 39.8223C 47.2969 38.9199 46.9512 37.7422 46.9512 36.2891L 46.9512 36.166ZM 48.5771 36.3506C 48.5771 37.4287 48.7998 38.2725 49.2451 38.8818C 49.6904 39.4912 50.3057 39.7959 51.0908 39.7959C 52.1221 39.7959 52.875 39.333 53.3496 38.4072L 53.3496 34.0391C 52.8633 33.1426 52.1162 32.6943 51.1084 32.6943C 50.3115 32.6943 49.6904 33.002 49.2451 33.6172C 48.7998 34.2324 48.5771 35.1436 48.5771 36.3506ZM 23.502 61.6602L 18.1406 61.6602L 16.9365 65L 15.1963 65L 20.083 52.2031L 21.5596 52.2031L 26.4551 65L 24.7236 65L 23.502 61.6602ZM 18.6504 60.2715L 23.001 60.2715L 20.8213 54.2861L 18.6504 60.2715ZM 27.5273 60.166C 27.5273 58.707 27.873 57.5352 28.5645 56.6504C 29.2559 55.7598 30.1611 55.3145 31.2803 55.3145C 32.3936 55.3145 33.2754 55.6953 33.9258 56.457L 33.9258 51.5L 35.5518 51.5L 35.5518 65L 34.0576 65L 33.9785 63.9805C 33.3281 64.7773 32.4229 65.1758 31.2627 65.1758C 30.1611 65.1758 29.2617 64.7246 28.5645 63.8223C 27.873 62.9199 27.5273 61.7422 27.5273 60.2891L 27.5273 60.166ZM 29.1533 60.3506C 29.1533 61.4287 29.376 62.2725 29.8213 62.8818C 30.2666 63.4912 30.8818 63.7959 31.667 63.7959C 32.6982 63.7959 33.4512 63.333 33.9258 62.4072L 33.9258 58.0391C 33.4395 57.1426 32.6924 56.6943 31.6846 56.6943C 30.8877 56.6943 30.2666 57.002 29.8213 57.6172C 29.376 58.2324 29.1533 59.1436 29.1533 60.3506ZM 43.9541 64.0596C 43.3213 64.8037 42.3926 65.1758 41.168 65.1758C 40.1543 65.1758 39.3809 64.8828 38.8477 64.2969C 38.3203 63.7051 38.0537 62.832 38.0479 61.6777L 38.0479 55.4902L 39.6738 55.4902L 39.6738 61.6338C 39.6738 63.0752 40.2598 63.7959 41.4316 63.7959C 42.6738 63.7959 43.5 63.333 43.9102 62.4072L 43.9102 55.4902L 45.5361 55.4902L 45.5361 65L 43.9893 65L 43.9541 64.0596ZM 49.7812 65L 48.1553 65L 48.1553 51.5L 49.7812 51.5L 49.7812 65ZM 54.5977 53.1875L 54.5977 55.4902L 56.373 55.4902L 56.373 56.7471L 54.5977 56.7471L 54.5977 62.6445C 54.5977 63.0254 54.6768 63.3125 54.835 63.5059C 54.9932 63.6934 55.2627 63.7871 55.6436 63.7871C 55.8311 63.7871 56.0889 63.752 56.417 63.6816L 56.417 65C 55.9893 65.1172 55.5732 65.1758 55.1689 65.1758C 54.4424 65.1758 53.8945 64.9561 53.5254 64.5166C 53.1562 64.0771 52.9717 63.4531 52.9717 62.6445L 52.9717 56.7471L 51.2402 56.7471L 51.2402 55.4902L 52.9717 55.4902L 52.9717 53.1875L 54.5977 53.1875ZM 23.502 85.6602L 18.1406 85.6602L 16.9365 89L 15.1963 89L 20.083 76.2031L 21.5596 76.2031L 26.4551 89L 24.7236 89L 23.502 85.6602ZM 18.6504 84.2715L 23.001 84.2715L 20.8213 78.2861L 18.6504 84.2715ZM 27.5273 84.166C 27.5273 82.707 27.873 81.5352 28.5645 80.6504C 29.2559 79.7598 30.1611 79.3145 31.2803 79.3145C 32.3936 79.3145 33.2754 79.6953 33.9258 80.457L 33.9258 75.5L 35.5518 75.5L 35.5518 89L 34.0576 89L 33.9785 87.9805C 33.3281 88.7773 32.4229 89.1758 31.2627 89.1758C 30.1611 89.1758 29.2617 88.7246 28.5645 87.8223C 27.873 86.9199 27.5273 85.7422 27.5273 84.2891L 27.5273 84.166ZM 29.1533 84.3506C 29.1533 85.4287 29.376 86.2725 29.8213 86.8818C 30.2666 87.4912 30.8818 87.7959 31.667 87.7959C 32.6982 87.7959 33.4512 87.333 33.9258 86.4072L 33.9258 82.0391C 33.4395 81.1426 32.6924 80.6943 31.6846 80.6943C 30.8877 80.6943 30.2666 81.002 29.8213 81.6172C 29.376 82.2324 29.1533 83.1436 29.1533 84.3506ZM 43.9541 88.0596C 43.3213 88.8037 42.3926 89.1758 41.168 89.1758C 40.1543 89.1758 39.3809 88.8828 38.8477 88.2969C 38.3203 87.7051 38.0537 86.832 38.0479 85.6777L 38.0479 79.4902L 39.6738 79.4902L 39.6738 85.6338C 39.6738 87.0752 40.2598 87.7959 41.4316 87.7959C 42.6738 87.7959 43.5 87.333 43.9102 86.4072L 43.9102 79.4902L 45.5361 79.4902L 45.5361 89L 43.9893 89L 43.9541 88.0596ZM 49.7812 89L 48.1553 89L 48.1553 75.5L 49.7812 75.5L 49.7812 89ZM 54.5977 77.1875L 54.5977 79.4902L 56.373 79.4902L 56.373 80.7471L 54.5977 80.7471L 54.5977 86.6445C 54.5977 87.0254 54.6768 87.3125 54.835 87.5059C 54.9932 87.6934 55.2627 87.7871 55.6436 87.7871C 55.8311 87.7871 56.0889 87.752 56.417 87.6816L 56.417 89C 55.9893 89.1172 55.5732 89.1758 55.1689 89.1758C 54.4424 89.1758 53.8945 88.9561 53.5254 88.5166C 53.1562 88.0771 52.9717 87.4531 52.9717 86.6445L 52.9717 80.7471L 51.2402 80.7471L 51.2402 79.4902L 52.9717 79.4902L 52.9717 77.1875L 54.5977 77.1875ZM 23.502 109.66L 18.1406 109.66L 16.9365 113L 15.1963 113L 20.083 100.203L 21.5596 100.203L 26.4551 113L 24.7236 113L 23.502 109.66ZM 18.6504 108.271L 23.001 108.271L 20.8213 102.286L 18.6504 108.271ZM 27.5273 108.166C 27.5273 106.707 27.873 105.535 28.5645 104.65C 29.2559 103.76 30.1611 103.314 31.2803 103.314C 32.3936 103.314 33.2754 103.695 33.9258 104.457L 33.9258 99.5L 35.5518 99.5L 35.5518 113L 34.0576 113L 33.9785 111.98C 33.3281 112.777 32.4229 113.176 31.2627 113.176C 30.1611 113.176 29.2617 112.725 28.5645 111.822C 27.873 110.92 27.5273 109.742 27.5273 108.289L 27.5273 108.166ZM 29.1533 108.351C 29.1533 109.429 29.376 110.272 29.8213 110.882C 30.2666 111.491 30.8818 111.796 31.667 111.796C 32.6982 111.796 33.4512 111.333 33.9258 110.407L 33.9258 106.039C 33.4395 105.143 32.6924 104.694 31.6846 104.694C 30.8877 104.694 30.2666 105.002 29.8213 105.617C 29.376 106.232 29.1533 107.144 29.1533 108.351ZM 43.9541 112.06C 43.3213 112.804 42.3926 113.176 41.168 113.176C 40.1543 113.176 39.3809 112.883 38.8477 112.297C 38.3203 111.705 38.0537 110.832 38.0479 109.678L 38.0479 103.49L 39.6738 103.49L 39.6738 109.634C 39.6738 111.075 40.2598 111.796 41.4316 111.796C 42.6738 111.796 43.5 111.333 43.9102 110.407L 43.9102 103.49L 45.5361 103.49L 45.5361 113L 43.9893 113L 43.9541 112.06ZM 49.7812 113L 48.1553 113L 48.1553 99.5L 49.7812 99.5L 49.7812 113ZM 54.5977 101.188L 54.5977 103.49L 56.373 103.49L 56.373 104.747L 54.5977 104.747L 54.5977 110.645C 54.5977 111.025 54.6768 111.312 54.835 111.506C 54.9932 111.693 55.2627 111.787 55.6436 111.787C 55.8311 111.787 56.0889 111.752 56.417 111.682L 56.417 113C 55.9893 113.117 55.5732 113.176 55.1689 113.176C 54.4424 113.176 53.8945 112.956 53.5254 112.517C 53.1562 112.077 52.9717 111.453 52.9717 110.645L 52.9717 104.747L 51.2402 104.747L 51.2402 103.49L 52.9717 103.49L 52.9717 101.188L 54.5977 101.188ZM 8.12988 124.203L 12.3135 134.645L 16.4971 124.203L 18.6855 124.203L 18.6855 137L 16.998 137L 16.998 132.017L 17.1562 126.638L 12.9551 137L 11.6631 137L 7.4707 126.664L 7.6377 132.017L 7.6377 137L 5.9502 137L 5.9502 124.203L 8.12988 124.203ZM 23.1768 137L 21.5508 137L 21.5508 127.49L 23.1768 127.49L 23.1768 137ZM 21.4189 124.968C 21.4189 124.704 21.498 124.481 21.6562 124.3C 21.8203 124.118 22.0605 124.027 22.377 124.027C 22.6934 124.027 22.9336 124.118 23.0977 124.3C 23.2617 124.481 23.3438 124.704 23.3438 124.968C 23.3438 125.231 23.2617 125.451 23.0977 125.627C 22.9336 125.803 22.6934 125.891 22.377 125.891C 22.0605 125.891 21.8203 125.803 21.6562 125.627C 21.498 125.451 21.4189 125.231 21.4189 124.968ZM 31.3242 134.478C 31.3242 134.038 31.1572 133.698 30.8232 133.458C 30.4951 133.212 29.918 133.001 29.0918 132.825C 28.2715 132.649 27.6182 132.438 27.1318 132.192C 26.6514 131.946 26.2939 131.653 26.0596 131.313C 25.8311 130.974 25.7168 130.569 25.7168 130.101C 25.7168 129.321 26.0449 128.662 26.7012 128.123C 27.3633 127.584 28.207 127.314 29.2324 127.314C 30.3105 127.314 31.1836 127.593 31.8516 128.149C 32.5254 128.706 32.8623 129.418 32.8623 130.285L 31.2275 130.285C 31.2275 129.84 31.0371 129.456 30.6562 129.134C 30.2812 128.812 29.8066 128.65 29.2324 128.65C 28.6406 128.65 28.1777 128.779 27.8438 129.037C 27.5098 129.295 27.3428 129.632 27.3428 130.048C 27.3428 130.44 27.498 130.736 27.8086 130.936C 28.1191 131.135 28.6787 131.325 29.4873 131.507C 30.3018 131.688 30.9609 131.905 31.4648 132.157C 31.9687 132.409 32.3408 132.714 32.5811 133.071C 32.8271 133.423 32.9502 133.854 32.9502 134.363C 32.9502 135.213 32.6104 135.896 31.9307 136.411C 31.251 136.921 30.3691 137.176 29.2852 137.176C 28.5234 137.176 27.8496 137.041 27.2637 136.771C 26.6777 136.502 26.2178 136.127 25.8838 135.646C 25.5557 135.16 25.3916 134.636 25.3916 134.073L 27.0176 134.073C 27.0469 134.618 27.2637 135.052 27.668 135.374C 28.0781 135.69 28.6172 135.849 29.2852 135.849C 29.9004 135.849 30.3926 135.726 30.7617 135.479C 31.1367 135.228 31.3242 134.894 31.3242 134.478ZM 40.6055 134.478C 40.6055 134.038 40.4385 133.698 40.1045 133.458C 39.7764 133.212 39.1992 133.001 38.373 132.825C 37.5527 132.649 36.8994 132.438 36.4131 132.192C 35.9326 131.946 35.5752 131.653 35.3408 131.313C 35.1123 130.974 34.998 130.569 34.998 130.101C 34.998 129.321 35.3262 128.662 35.9824 128.123C 36.6445 127.584 37.4883 127.314 38.5137 127.314C 39.5918 127.314 40.4648 127.593 41.1328 128.149C 41.8066 128.706 42.1436 129.418 42.1436 130.285L 40.5088 130.285C 40.5088 129.84 40.3184 129.456 39.9375 129.134C 39.5625 128.812 39.0879 128.65 38.5137 128.65C 37.9219 128.65 37.459 128.779 37.125 129.037C 36.791 129.295 36.624 129.632 36.624 130.048C 36.624 130.44 36.7793 130.736 37.0898 130.936C 37.4004 131.135 37.96 131.325 38.7686 131.507C 39.583 131.688 40.2422 131.905 40.7461 132.157C 41.25 132.409 41.6221 132.714 41.8623 133.071C 42.1084 133.423 42.2314 133.854 42.2314 134.363C 42.2314 135.213 41.8916 135.896 41.2119 136.411C 40.5322 136.921 39.6504 137.176 38.5664 137.176C 37.8047 137.176 37.1309 137.041 36.5449 136.771C 35.959 136.502 35.499 136.127 35.165 135.646C 34.8369 135.16 34.6729 134.636 34.6729 134.073L 36.2988 134.073C 36.3281 134.618 36.5449 135.052 36.9492 135.374C 37.3594 135.69 37.8984 135.849 38.5664 135.849C 39.1816 135.849 39.6738 135.726 40.043 135.479C 40.418 135.228 40.6055 134.894 40.6055 134.478ZM 46.1162 137L 44.4902 137L 44.4902 127.49L 46.1162 127.49L 46.1162 137ZM 44.3584 124.968C 44.3584 124.704 44.4375 124.481 44.5957 124.3C 44.7598 124.118 45 124.027 45.3164 124.027C 45.6328 124.027 45.873 124.118 46.0371 124.3C 46.2012 124.481 46.2832 124.704 46.2832 124.968C 46.2832 125.231 46.2012 125.451 46.0371 125.627C 45.873 125.803 45.6328 125.891 45.3164 125.891C 45 125.891 44.7598 125.803 44.5957 125.627C 44.4375 125.451 44.3584 125.231 44.3584 124.968ZM 50.2646 127.49L 50.3174 128.686C 51.0439 127.771 51.9932 127.314 53.165 127.314C 55.1748 127.314 56.1885 128.448 56.2061 130.716L 56.2061 137L 54.5801 137L 54.5801 130.707C 54.5742 130.021 54.416 129.515 54.1055 129.187C 53.8008 128.858 53.3232 128.694 52.6729 128.694C 52.1455 128.694 51.6826 128.835 51.2842 129.116C 50.8857 129.397 50.5752 129.767 50.3525 130.224L 50.3525 137L 48.7266 137L 48.7266 127.49L 50.2646 127.49ZM 58.2715 132.166C 58.2715 130.684 58.6143 129.506 59.2998 128.633C 59.9854 127.754 60.8936 127.314 62.0244 127.314C 63.1846 127.314 64.0898 127.725 64.7402 128.545L 64.8193 127.49L 66.3047 127.49L 66.3047 136.771C 66.3047 138.002 65.9385 138.972 65.2061 139.681C 64.4795 140.39 63.501 140.744 62.2705 140.744C 61.585 140.744 60.9141 140.598 60.2578 140.305C 59.6016 140.012 59.1006 139.61 58.7549 139.101L 59.5986 138.125C 60.2959 138.986 61.1484 139.417 62.1562 139.417C 62.9473 139.417 63.5625 139.194 64.002 138.749C 64.4473 138.304 64.6699 137.677 64.6699 136.868L 64.6699 136.051C 64.0195 136.801 63.1318 137.176 62.0068 137.176C 60.8936 137.176 59.9912 136.728 59.2998 135.831C 58.6143 134.935 58.2715 133.713 58.2715 132.166ZM 59.9062 132.351C 59.9062 133.423 60.126 134.267 60.5654 134.882C 61.0049 135.491 61.6201 135.796 62.4111 135.796C 63.4365 135.796 64.1895 135.33 64.6699 134.398L 64.6699 130.057C 64.1719 129.148 63.4248 128.694 62.4287 128.694C 61.6377 128.694 61.0195 129.002 60.5742 129.617C 60.1289 130.232 59.9062 131.144 59.9062 132.351ZM 26.6221 156.939C 26.4639 158.293 25.9629 159.339 25.1191 160.077C 24.2813 160.81 23.165 161.176 21.7705 161.176C 20.2588 161.176 19.0459 160.634 18.1318 159.55C 17.2236 158.466 16.7695 157.016 16.7695 155.199L 16.7695 153.969C 16.7695 152.779 16.9805 151.733 17.4023 150.831C 17.8301 149.929 18.4336 149.237 19.2129 148.757C 19.9922 148.271 20.8945 148.027 21.9199 148.027C 23.2793 148.027 24.3691 148.408 25.1895 149.17C 26.0098 149.926 26.4873 150.975 26.6221 152.316L 24.9258 152.316C 24.7793 151.297 24.46 150.559 23.9678 150.102C 23.4814 149.645 22.7988 149.416 21.9199 149.416C 20.8418 149.416 19.9951 149.814 19.3799 150.611C 18.7705 151.408 18.4658 152.542 18.4658 154.013L 18.4658 155.252C 18.4658 156.641 18.7559 157.745 19.3359 158.565C 19.916 159.386 20.7275 159.796 21.7705 159.796C 22.708 159.796 23.4258 159.585 23.9238 159.163C 24.4277 158.735 24.7617 157.994 24.9258 156.939L 26.6221 156.939ZM 30.3047 152.642C 31.0254 151.757 31.9629 151.314 33.1172 151.314C 35.127 151.314 36.1406 152.448 36.1582 154.716L 36.1582 161L 34.5322 161L 34.5322 154.707C 34.5264 154.021 34.3682 153.515 34.0576 153.187C 33.7529 152.858 33.2754 152.694 32.625 152.694C 32.0977 152.694 31.6348 152.835 31.2363 153.116C 30.8379 153.397 30.5273 153.767 30.3047 154.224L 30.3047 161L 28.6787 161L 28.6787 147.5L 30.3047 147.5L 30.3047 152.642ZM 40.3594 161L 38.7334 161L 38.7334 151.49L 40.3594 151.49L 40.3594 161ZM 38.6016 148.968C 38.6016 148.704 38.6807 148.481 38.8389 148.3C 39.0029 148.118 39.2432 148.027 39.5596 148.027C 39.876 148.027 40.1162 148.118 40.2803 148.3C 40.4443 148.481 40.5264 148.704 40.5264 148.968C 40.5264 149.231 40.4443 149.451 40.2803 149.627C 40.1162 149.803 39.876 149.891 39.5596 149.891C 39.2432 149.891 39.0029 149.803 38.8389 149.627C 38.6807 149.451 38.6016 149.231 38.6016 148.968ZM 44.7363 161L 43.1104 161L 43.1104 147.5L 44.7363 147.5L 44.7363 161ZM 46.9512 156.166C 46.9512 154.707 47.2969 153.535 47.9883 152.65C 48.6797 151.76 49.585 151.314 50.7041 151.314C 51.8174 151.314 52.6992 151.695 53.3496 152.457L 53.3496 147.5L 54.9756 147.5L 54.9756 161L 53.4814 161L 53.4023 159.98C 52.752 160.777 51.8467 161.176 50.6865 161.176C 49.585 161.176 48.6855 160.725 47.9883 159.822C 47.2969 158.92 46.9512 157.742 46.9512 156.289L 46.9512 156.166ZM 48.5771 156.351C 48.5771 157.429 48.7998 158.272 49.2451 158.882C 49.6904 159.491 50.3057 159.796 51.0908 159.796C 52.1221 159.796 52.875 159.333 53.3496 158.407L 53.3496 154.039C 52.8633 153.143 52.1162 152.694 51.1084 152.694C 50.3115 152.694 49.6904 153.002 49.2451 153.617C 48.7998 154.232 48.5771 155.144 48.5771 156.351ZM 26.6221 180.939C 26.4639 182.293 25.9629 183.339 25.1191 184.077C 24.2813 184.81 23.165 185.176 21.7705 185.176C 20.2588 185.176 19.0459 184.634 18.1318 183.55C 17.2236 182.466 16.7695 181.016 16.7695 179.199L 16.7695 177.969C 16.7695 176.779 16.9805 175.733 17.4023 174.831C 17.8301 173.929 18.4336 173.237 19.2129 172.757C 19.9922 172.271 20.8945 172.027 21.9199 172.027C 23.2793 172.027 24.3691 172.408 25.1895 173.17C 26.0098 173.926 26.4873 174.975 26.6221 176.316L 24.9258 176.316C 24.7793 175.297 24.46 174.559 23.9678 174.102C 23.4814 173.645 22.7988 173.416 21.9199 173.416C 20.8418 173.416 19.9951 173.814 19.3799 174.611C 18.7705 175.408 18.4658 176.542 18.4658 178.013L 18.4658 179.252C 18.4658 180.641 18.7559 181.745 19.3359 182.565C 19.916 183.386 20.7275 183.796 21.7705 183.796C 22.708 183.796 23.4258 183.585 23.9238 183.163C 24.4277 182.735 24.7617 181.994 24.9258 180.939L 26.6221 180.939ZM 30.3047 176.642C 31.0254 175.757 31.9629 175.314 33.1172 175.314C 35.127 175.314 36.1406 176.448 36.1582 178.716L 36.1582 185L 34.5322 185L 34.5322 178.707C 34.5264 178.021 34.3682 177.515 34.0576 177.187C 33.7529 176.858 33.2754 176.694 32.625 176.694C 32.0977 176.694 31.6348 176.835 31.2363 177.116C 30.8379 177.397 30.5273 177.767 30.3047 178.224L 30.3047 185L 28.6787 185L 28.6787 171.5L 30.3047 171.5L 30.3047 176.642ZM 40.3594 185L 38.7334 185L 38.7334 175.49L 40.3594 175.49L 40.3594 185ZM 38.6016 172.968C 38.6016 172.704 38.6807 172.481 38.8389 172.3C 39.0029 172.118 39.2432 172.027 39.5596 172.027C 39.876 172.027 40.1162 172.118 40.2803 172.3C 40.4443 172.481 40.5264 172.704 40.5264 172.968C 40.5264 173.231 40.4443 173.451 40.2803 173.627C 40.1162 173.803 39.876 173.891 39.5596 173.891C 39.2432 173.891 39.0029 173.803 38.8389 173.627C 38.6807 173.451 38.6016 173.231 38.6016 172.968ZM 44.7363 185L 43.1104 185L 43.1104 171.5L 44.7363 171.5L 44.7363 185ZM 46.9512 180.166C 46.9512 178.707 47.2969 177.535 47.9883 176.65C 48.6797 175.76 49.585 175.314 50.7041 175.314C 51.8174 175.314 52.6992 175.695 53.3496 176.457L 53.3496 171.5L 54.9756 171.5L 54.9756 185L 53.4814 185L 53.4023 183.98C 52.752 184.777 51.8467 185.176 50.6865 185.176C 49.585 185.176 48.6855 184.725 47.9883 183.822C 47.2969 182.92 46.9512 181.742 46.9512 180.289L 46.9512 180.166ZM 48.5771 180.351C 48.5771 181.429 48.7998 182.272 49.2451 182.882C 49.6904 183.491 50.3057 183.796 51.0908 183.796C 52.1221 183.796 52.875 183.333 53.3496 182.407L 53.3496 178.039C 52.8633 177.143 52.1162 176.694 51.1084 176.694C 50.3115 176.694 49.6904 177.002 49.2451 177.617C 48.7998 178.232 48.5771 179.144 48.5771 180.351Z"/>
<path id="path9_stroke" d="M 46.7678 1.76777C 47.7441 0.791456 47.7441 -0.791456 46.7678 -1.76777L 30.8579 -17.6777C 29.8816 -18.654 28.2986 -18.654 27.3223 -17.6777C 26.346 -16.7014 26.346 -15.1184 27.3223 -14.1421L 41.4645 0L 27.3223 14.1421C 26.346 15.1184 26.346 16.7014 27.3223 17.6777C 28.2986 18.654 29.8816 18.654 30.8579 17.6777L 46.7678 1.76777ZM 0 2.5L 45 2.5L 45 -2.5L 0 -2.5L 0 2.5Z"/>
<path id="path10_fill" d="M 22.6689 8.60449L 18.4922 8.60449L 18.4922 13L 17.1797 13L 17.1797 3.04688L 23.3457 3.04688L 23.3457 4.12695L 18.4922 4.12695L 18.4922 7.53125L 22.6689 7.53125L 22.6689 8.60449ZM 26.0938 13L 24.8291 13L 24.8291 5.60352L 26.0938 5.60352L 26.0938 13ZM 24.7266 3.6416C 24.7266 3.43652 24.7881 3.26335 24.9111 3.12207C 25.0387 2.98079 25.2256 2.91016 25.4717 2.91016C 25.7178 2.91016 25.9046 2.98079 26.0322 3.12207C 26.1598 3.26335 26.2236 3.43652 26.2236 3.6416C 26.2236 3.84668 26.1598 4.01758 26.0322 4.1543C 25.9046 4.29102 25.7178 4.35938 25.4717 4.35938C 25.2256 4.35938 25.0387 4.29102 24.9111 4.1543C 24.7881 4.01758 24.7266 3.84668 24.7266 3.6416ZM 29.498 13L 28.2334 13L 28.2334 2.5L 29.498 2.5L 29.498 13ZM 32.9023 13L 31.6377 13L 31.6377 2.5L 32.9023 2.5L 32.9023 13ZM 2.5918 21.6035L 2.62598 22.4238C 3.16829 21.7858 3.89974 21.4668 4.82031 21.4668C 5.85482 21.4668 6.55892 21.8633 6.93262 22.6562C 7.17871 22.3008 7.49772 22.0137 7.88965 21.7949C 8.28613 21.5762 8.75326 21.4668 9.29102 21.4668C 10.9134 21.4668 11.7383 22.3258 11.7656 24.0439L 11.7656 29L 10.501 29L 10.501 24.1191C 10.501 23.5905 10.3802 23.1963 10.1387 22.9365C 9.89714 22.6722 9.49154 22.54 8.92188 22.54C 8.45247 22.54 8.06283 22.6813 7.75293 22.9639C 7.44303 23.2419 7.26302 23.6178 7.21289 24.0918L 7.21289 29L 5.94141 29L 5.94141 24.1533C 5.94141 23.0778 5.41504 22.54 4.3623 22.54C 3.53288 22.54 2.96549 22.8932 2.66016 23.5996L 2.66016 29L 1.39551 29L 1.39551 21.6035L 2.5918 21.6035ZM 15.0537 29L 13.7891 29L 13.7891 21.6035L 15.0537 21.6035L 15.0537 29ZM 13.6865 19.6416C 13.6865 19.4365 13.748 19.2633 13.8711 19.1221C 13.9987 18.9808 14.1855 18.9102 14.4316 18.9102C 14.6777 18.9102 14.8646 18.9808 14.9922 19.1221C 15.1198 19.2633 15.1836 19.4365 15.1836 19.6416C 15.1836 19.8467 15.1198 20.0176 14.9922 20.1543C 14.8646 20.291 14.6777 20.3594 14.4316 20.3594C 14.1855 20.3594 13.9987 20.291 13.8711 20.1543C 13.748 20.0176 13.6865 19.8467 13.6865 19.6416ZM 21.3906 27.0381C 21.3906 26.6963 21.2607 26.432 21.001 26.2451C 20.7458 26.0537 20.2969 25.8896 19.6543 25.7529C 19.0163 25.6162 18.5081 25.4521 18.1299 25.2607C 17.7562 25.0693 17.4782 24.8415 17.2959 24.5771C 17.1182 24.3128 17.0293 23.9984 17.0293 23.6338C 17.0293 23.0277 17.2845 22.515 17.7949 22.0957C 18.3099 21.6764 18.9661 21.4668 19.7637 21.4668C 20.6022 21.4668 21.2812 21.6833 21.8008 22.1162C 22.3249 22.5492 22.5869 23.1029 22.5869 23.7773L 21.3154 23.7773C 21.3154 23.431 21.1673 23.1325 20.8711 22.8818C 20.5794 22.6312 20.2103 22.5059 19.7637 22.5059C 19.3034 22.5059 18.9434 22.6061 18.6836 22.8066C 18.4238 23.0072 18.2939 23.2692 18.2939 23.5928C 18.2939 23.8981 18.4147 24.1283 18.6562 24.2832C 18.8978 24.4382 19.333 24.5863 19.9619 24.7275C 20.5954 24.8688 21.1081 25.0374 21.5 25.2334C 21.8919 25.4294 22.1813 25.6663 22.3682 25.9443C 22.5596 26.2178 22.6553 26.5527 22.6553 26.9492C 22.6553 27.61 22.391 28.141 21.8623 28.542C 21.3337 28.9385 20.6478 29.1367 19.8047 29.1367C 19.2122 29.1367 18.6882 29.0319 18.2324 28.8223C 17.7767 28.6126 17.4189 28.321 17.1592 27.9473C 16.904 27.569 16.7764 27.1611 16.7764 26.7236L 18.041 26.7236C 18.0638 27.1475 18.2324 27.4847 18.5469 27.7354C 18.8659 27.9814 19.2852 28.1045 19.8047 28.1045C 20.2832 28.1045 20.666 28.0088 20.9531 27.8174C 21.2448 27.6214 21.3906 27.3617 21.3906 27.0381ZM 28.6094 27.0381C 28.6094 26.6963 28.4795 26.432 28.2197 26.2451C 27.9645 26.0537 27.5156 25.8896 26.873 25.7529C 26.235 25.6162 25.7269 25.4521 25.3486 25.2607C 24.9749 25.0693 24.6969 24.8415 24.5146 24.5771C 24.3369 24.3128 24.248 23.9984 24.248 23.6338C 24.248 23.0277 24.5033 22.515 25.0137 22.0957C 25.5286 21.6764 26.1849 21.4668 26.9824 21.4668C 27.821 21.4668 28.5 21.6833 29.0195 22.1162C 29.5436 22.5492 29.8057 23.1029 29.8057 23.7773L 28.5342 23.7773C 28.5342 23.431 28.3861 23.1325 28.0898 22.8818C 27.7982 22.6312 27.429 22.5059 26.9824 22.5059C 26.5221 22.5059 26.1621 22.6061 25.9023 22.8066C 25.6426 23.0072 25.5127 23.2692 25.5127 23.5928C 25.5127 23.8981 25.6335 24.1283 25.875 24.2832C 26.1165 24.4382 26.5518 24.5863 27.1807 24.7275C 27.8141 24.8688 28.3268 25.0374 28.7188 25.2334C 29.1107 25.4294 29.4001 25.6663 29.5869 25.9443C 29.7783 26.2178 29.874 26.5527 29.874 26.9492C 29.874 27.61 29.6097 28.141 29.0811 28.542C 28.5524 28.9385 27.8665 29.1367 27.0234 29.1367C 26.431 29.1367 25.9069 29.0319 25.4512 28.8223C 24.9954 28.6126 24.6377 28.321 24.3779 27.9473C 24.1227 27.569 23.9951 27.1611 23.9951 26.7236L 25.2598 26.7236C 25.2826 27.1475 25.4512 27.4847 25.7656 27.7354C 26.0846 27.9814 26.5039 28.1045 27.0234 28.1045C 27.502 28.1045 27.8848 28.0088 28.1719 27.8174C 28.4635 27.6214 28.6094 27.3617 28.6094 27.0381ZM 32.8955 29L 31.6309 29L 31.6309 21.6035L 32.8955 21.6035L 32.8955 29ZM 31.5283 19.6416C 31.5283 19.4365 31.5898 19.2633 31.7129 19.1221C 31.8405 18.9808 32.0273 18.9102 32.2734 18.9102C 32.5195 18.9102 32.7064 18.9808 32.834 19.1221C 32.9616 19.2633 33.0254 19.4365 33.0254 19.6416C 33.0254 19.8467 32.9616 20.0176 32.834 20.1543C 32.7064 20.291 32.5195 20.3594 32.2734 20.3594C 32.0273 20.3594 31.8405 20.291 31.7129 20.1543C 31.5898 20.0176 31.5283 19.8467 31.5283 19.6416ZM 36.1221 21.6035L 36.1631 22.5332C 36.7282 21.8223 37.4665 21.4668 38.3779 21.4668C 39.9411 21.4668 40.7295 22.3486 40.7432 24.1123L 40.7432 29L 39.4785 29L 39.4785 24.1055C 39.474 23.5723 39.3509 23.1781 39.1094 22.9229C 38.8724 22.6676 38.501 22.54 37.9951 22.54C 37.585 22.54 37.2249 22.6494 36.915 22.8682C 36.6051 23.0869 36.3636 23.374 36.1904 23.7295L 36.1904 29L 34.9258 29L 34.9258 21.6035L 36.1221 21.6035ZM 42.3496 25.2402C 42.3496 24.0872 42.6162 23.1712 43.1494 22.4922C 43.6826 21.8086 44.389 21.4668 45.2686 21.4668C 46.1709 21.4668 46.875 21.7858 47.3809 22.4238L 47.4424 21.6035L 48.5977 21.6035L 48.5977 28.8223C 48.5977 29.7793 48.3128 30.5335 47.7432 31.085C 47.1781 31.6364 46.417 31.9121 45.46 31.9121C 44.9268 31.9121 44.4049 31.7982 43.8945 31.5703C 43.3841 31.3424 42.9945 31.0303 42.7256 30.6338L 43.3818 29.875C 43.9242 30.5449 44.5872 30.8799 45.3711 30.8799C 45.9863 30.8799 46.4648 30.7067 46.8066 30.3604C 47.153 30.014 47.3262 29.5264 47.3262 28.8975L 47.3262 28.2617C 46.8203 28.8451 46.1299 29.1367 45.2549 29.1367C 44.389 29.1367 43.6872 28.7881 43.1494 28.0908C 42.6162 27.3936 42.3496 26.4434 42.3496 25.2402ZM 43.6211 25.3838C 43.6211 26.2178 43.792 26.874 44.1338 27.3525C 44.4756 27.8265 44.9541 28.0635 45.5693 28.0635C 46.3669 28.0635 46.9525 27.7012 47.3262 26.9766L 47.3262 23.5996C 46.9388 22.8932 46.3577 22.54 45.583 22.54C 44.9678 22.54 44.487 22.7793 44.1406 23.2578C 43.7943 23.7363 43.6211 24.445 43.6211 25.3838ZM 8.36816 44.2842L 10.2002 38.6035L 11.4922 38.6035L 8.83984 46L 7.87598 46L 5.19629 38.6035L 6.48828 38.6035L 8.36816 44.2842ZM 17.166 46C 17.0931 45.8542 17.0339 45.5944 16.9883 45.2207C 16.4004 45.8314 15.6986 46.1367 14.8828 46.1367C 14.1536 46.1367 13.5544 45.9316 13.085 45.5215C 12.6201 45.1068 12.3877 44.5827 12.3877 43.9492C 12.3877 43.179 12.6794 42.582 13.2627 42.1582C 13.8506 41.7298 14.6755 41.5156 15.7373 41.5156L 16.9678 41.5156L 16.9678 40.9346C 16.9678 40.4925 16.8356 40.1416 16.5713 39.8818C 16.307 39.6175 15.9173 39.4854 15.4023 39.4854C 14.9512 39.4854 14.5729 39.5993 14.2676 39.8271C 13.9622 40.055 13.8096 40.3307 13.8096 40.6543L 12.5381 40.6543C 12.5381 40.2852 12.668 39.9297 12.9277 39.5879C 13.1921 39.2415 13.5475 38.9681 13.9941 38.7676C 14.4453 38.5671 14.9398 38.4668 15.4775 38.4668C 16.3298 38.4668 16.9974 38.681 17.4805 39.1094C 17.9635 39.5332 18.2142 40.1188 18.2324 40.8662L 18.2324 44.2705C 18.2324 44.9495 18.319 45.4896 18.4922 45.8906L 18.4922 46L 17.166 46ZM 15.0674 45.0361C 15.4639 45.0361 15.8398 44.9336 16.1953 44.7285C 16.5508 44.5234 16.8083 44.2568 16.9678 43.9287L 16.9678 42.4111L 15.9766 42.4111C 14.4271 42.4111 13.6523 42.8646 13.6523 43.7715C 13.6523 44.168 13.7845 44.4779 14.0488 44.7012C 14.3132 44.9245 14.6527 45.0361 15.0674 45.0361ZM 21.5889 46L 20.3242 46L 20.3242 35.5L 21.5889 35.5L 21.5889 46ZM 28.1855 45.2686C 27.6934 45.8473 26.971 46.1367 26.0186 46.1367C 25.2301 46.1367 24.6286 45.9089 24.2139 45.4531C 23.8037 44.9928 23.5964 44.3138 23.5918 43.416L 23.5918 38.6035L 24.8564 38.6035L 24.8564 43.3818C 24.8564 44.5029 25.3122 45.0635 26.2236 45.0635C 27.1898 45.0635 27.8324 44.7035 28.1514 43.9834L 28.1514 38.6035L 29.416 38.6035L 29.416 46L 28.2129 46L 28.1855 45.2686ZM 34.4131 46.1367C 33.4105 46.1367 32.5947 45.8086 31.9658 45.1523C 31.3369 44.4915 31.0225 43.6097 31.0225 42.5068L 31.0225 42.2744C 31.0225 41.5407 31.1615 40.8867 31.4395 40.3125C 31.722 39.7337 32.1139 39.2826 32.6152 38.959C 33.1211 38.6309 33.668 38.4668 34.2559 38.4668C 35.2174 38.4668 35.9648 38.7835 36.498 39.417C 37.0312 40.0505 37.2979 40.9574 37.2979 42.1377L 37.2979 42.6641L 32.2871 42.6641C 32.3053 43.3932 32.5173 43.9834 32.9229 44.4346C 33.333 44.8812 33.8525 45.1045 34.4814 45.1045C 34.9281 45.1045 35.3063 45.0133 35.6162 44.8311C 35.9261 44.6488 36.1973 44.4072 36.4297 44.1064L 37.2021 44.708C 36.5824 45.6605 35.6527 46.1367 34.4131 46.1367ZM 34.2559 39.5059C 33.7454 39.5059 33.3171 39.6927 32.9707 40.0664C 32.6243 40.4355 32.4102 40.9551 32.3281 41.625L 36.0332 41.625L 36.0332 41.5293C 35.9967 40.8867 35.8236 40.39 35.5137 40.0391C 35.2038 39.6836 34.7845 39.5059 34.2559 39.5059ZM 43.0742 44.0381C 43.0742 43.6963 42.9443 43.432 42.6846 43.2451C 42.4294 43.0537 41.9805 42.8896 41.3379 42.7529C 40.6999 42.6162 40.1917 42.4521 39.8135 42.2607C 39.4398 42.0693 39.1618 41.8415 38.9795 41.5771C 38.8018 41.3128 38.7129 40.9984 38.7129 40.6338C 38.7129 40.0277 38.9681 39.515 39.4785 39.0957C 39.9935 38.6764 40.6497 38.4668 41.4473 38.4668C 42.2858 38.4668 42.9648 38.6833 43.4844 39.1162C 44.0085 39.5492 44.2705 40.1029 44.2705 40.7773L 42.999 40.7773C 42.999 40.431 42.8509 40.1325 42.5547 39.8818C 42.263 39.6312 41.8939 39.5059 41.4473 39.5059C 40.987 39.5059 40.627 39.6061 40.3672 39.8066C 40.1074 40.0072 39.9775 40.2692 39.9775 40.5928C 39.9775 40.8981 40.0983 41.1283 40.3398 41.2832C 40.5814 41.4382 41.0166 41.5863 41.6455 41.7275C 42.279 41.8688 42.7917 42.0374 43.1836 42.2334C 43.5755 42.4294 43.8649 42.6663 44.0518 42.9443C 44.2432 43.2178 44.3389 43.5527 44.3389 43.9492C 44.3389 44.61 44.0745 45.141 43.5459 45.542C 43.0173 45.9385 42.3314 46.1367 41.4883 46.1367C 40.8958 46.1367 40.3717 46.0319 39.916 45.8223C 39.4603 45.6126 39.1025 45.321 38.8428 44.9473C 38.5876 44.569 38.46 44.1611 38.46 43.7236L 39.7246 43.7236C 39.7474 44.1475 39.916 44.4847 40.2305 44.7354C 40.5495 44.9814 40.9688 45.1045 41.4883 45.1045C 41.9668 45.1045 42.3496 45.0088 42.6367 44.8174C 42.9284 44.6214 43.0742 44.3617 43.0742 44.0381Z"/>
<path id="path11_fill" d="M 17.1748 9.8418C 17.0518 10.8945 16.6621 11.708 16.0059 12.2822C 15.3542 12.8519 14.486 13.1367 13.4014 13.1367C 12.2256 13.1367 11.2822 12.7152 10.5713 11.8721C 9.86491 11.029 9.51172 9.90104 9.51172 8.48828L 9.51172 7.53125C 9.51172 6.60612 9.67578 5.79264 10.0039 5.09082C 10.3366 4.389 10.806 3.85124 11.4121 3.47754C 12.0182 3.09928 12.7201 2.91016 13.5176 2.91016C 14.5749 2.91016 15.4225 3.20638 16.0605 3.79883C 16.6986 4.38672 17.07 5.20247 17.1748 6.24609L 15.8555 6.24609C 15.7415 5.45312 15.4932 4.87891 15.1104 4.52344C 14.7321 4.16797 14.2012 3.99023 13.5176 3.99023C 12.679 3.99023 12.0205 4.30013 11.542 4.91992C 11.068 5.53971 10.8311 6.42155 10.8311 7.56543L 10.8311 8.5293C 10.8311 9.60938 11.0566 10.4684 11.5078 11.1064C 11.959 11.7445 12.5902 12.0635 13.4014 12.0635C 14.1305 12.0635 14.6888 11.8994 15.0762 11.5713C 15.4681 11.2386 15.7279 10.6621 15.8555 9.8418L 17.1748 9.8418ZM 18.4395 9.2334C 18.4395 8.50879 18.5807 7.8571 18.8633 7.27832C 19.1504 6.69954 19.5469 6.25293 20.0527 5.93848C 20.5632 5.62402 21.1442 5.4668 21.7959 5.4668C 22.8031 5.4668 23.6165 5.81543 24.2363 6.5127C 24.8607 7.20996 25.1729 8.13737 25.1729 9.29492L 25.1729 9.38379C 25.1729 10.1038 25.0339 10.751 24.7559 11.3252C 24.4824 11.8949 24.0882 12.3392 23.5732 12.6582C 23.0628 12.9772 22.4749 13.1367 21.8096 13.1367C 20.807 13.1367 19.9935 12.7881 19.3691 12.0908C 18.7493 11.3936 18.4395 10.4707 18.4395 9.32227L 18.4395 9.2334ZM 19.7109 9.38379C 19.7109 10.2041 19.9001 10.8626 20.2783 11.3594C 20.6611 11.8561 21.1715 12.1045 21.8096 12.1045C 22.4521 12.1045 22.9626 11.8538 23.3408 11.3525C 23.7191 10.8467 23.9082 10.1403 23.9082 9.2334C 23.9082 8.4222 23.7145 7.76595 23.3271 7.26465C 22.9443 6.75879 22.4339 6.50586 21.7959 6.50586C 21.1715 6.50586 20.668 6.75423 20.2852 7.25098C 19.9023 7.74772 19.7109 8.45866 19.7109 9.38379ZM 27.9551 5.60352L 27.9961 6.5332C 28.5612 5.82227 29.2995 5.4668 30.2109 5.4668C 31.7741 5.4668 32.5625 6.34863 32.5762 8.1123L 32.5762 13L 31.3115 13L 31.3115 8.10547C 31.307 7.57227 31.1839 7.17806 30.9424 6.92285C 30.7054 6.66764 30.334 6.54004 29.8281 6.54004C 29.418 6.54004 29.0579 6.64941 28.748 6.86816C 28.4382 7.08691 28.1966 7.37402 28.0234 7.72949L 28.0234 13L 26.7588 13L 26.7588 5.60352L 27.9551 5.60352ZM 36.9238 11.2842L 38.7559 5.60352L 40.0479 5.60352L 37.3955 13L 36.4316 13L 33.752 5.60352L 35.0439 5.60352L 36.9238 11.2842ZM 44.2383 13.1367C 43.2357 13.1367 42.4199 12.8086 41.791 12.1523C 41.1621 11.4915 40.8477 10.6097 40.8477 9.50684L 40.8477 9.27441C 40.8477 8.54069 40.9867 7.88672 41.2646 7.3125C 41.5472 6.73372 41.9391 6.28255 42.4404 5.95898C 42.9463 5.63086 43.4932 5.4668 44.0811 5.4668C 45.0426 5.4668 45.79 5.78353 46.3232 6.41699C 46.8564 7.05046 47.123 7.95736 47.123 9.1377L 47.123 9.66406L 42.1123 9.66406C 42.1305 10.3932 42.3424 10.9834 42.748 11.4346C 43.1582 11.8812 43.6777 12.1045 44.3066 12.1045C 44.7533 12.1045 45.1315 12.0133 45.4414 11.8311C 45.7513 11.6488 46.0225 11.4072 46.2549 11.1064L 47.0273 11.708C 46.4076 12.6605 45.4779 13.1367 44.2383 13.1367ZM 44.0811 6.50586C 43.5706 6.50586 43.1423 6.69271 42.7959 7.06641C 42.4495 7.43555 42.2354 7.95508 42.1533 8.625L 45.8584 8.625L 45.8584 8.5293C 45.8219 7.88672 45.6488 7.38997 45.3389 7.03906C 45.029 6.68359 44.6097 6.50586 44.0811 6.50586ZM 52.168 6.73828C 51.9766 6.70638 51.7692 6.69043 51.5459 6.69043C 50.7165 6.69043 50.1536 7.04362 49.8574 7.75L 49.8574 13L 48.5928 13L 48.5928 5.60352L 49.8232 5.60352L 49.8438 6.45801C 50.2585 5.7972 50.8464 5.4668 51.6074 5.4668C 51.8535 5.4668 52.0404 5.4987 52.168 5.5625L 52.168 6.73828ZM 55.3945 3.8125L 55.3945 5.60352L 56.7754 5.60352L 56.7754 6.58105L 55.3945 6.58105L 55.3945 11.168C 55.3945 11.4642 55.4561 11.6875 55.5791 11.8379C 55.7021 11.9837 55.9118 12.0566 56.208 12.0566C 56.3538 12.0566 56.5544 12.0293 56.8096 11.9746L 56.8096 13C 56.4769 13.0911 56.1533 13.1367 55.8389 13.1367C 55.2738 13.1367 54.8477 12.9658 54.5605 12.624C 54.2734 12.2822 54.1299 11.7969 54.1299 11.168L 54.1299 6.58105L 52.7832 6.58105L 52.7832 5.60352L 54.1299 5.60352L 54.1299 3.8125L 55.3945 3.8125ZM 8.41797 27.2842L 10.25 21.6035L 11.542 21.6035L 8.88965 29L 7.92578 29L 5.24609 21.6035L 6.53809 21.6035L 8.41797 27.2842ZM 17.2158 29C 17.1429 28.8542 17.0837 28.5944 17.0381 28.2207C 16.4502 28.8314 15.7484 29.1367 14.9326 29.1367C 14.2035 29.1367 13.6042 28.9316 13.1348 28.5215C 12.6699 28.1068 12.4375 27.5827 12.4375 26.9492C 12.4375 26.179 12.7292 25.582 13.3125 25.1582C 13.9004 24.7298 14.7253 24.5156 15.7871 24.5156L 17.0176 24.5156L 17.0176 23.9346C 17.0176 23.4925 16.8854 23.1416 16.6211 22.8818C 16.3568 22.6175 15.9671 22.4854 15.4521 22.4854C 15.001 22.4854 14.6227 22.5993 14.3174 22.8271C 14.012 23.055 13.8594 23.3307 13.8594 23.6543L 12.5879 23.6543C 12.5879 23.2852 12.7178 22.9297 12.9775 22.5879C 13.2419 22.2415 13.5973 21.9681 14.0439 21.7676C 14.4951 21.5671 14.9896 21.4668 15.5273 21.4668C 16.3796 21.4668 17.0472 21.681 17.5303 22.1094C 18.0133 22.5332 18.264 23.1188 18.2822 23.8662L 18.2822 27.2705C 18.2822 27.9495 18.3688 28.4896 18.542 28.8906L 18.542 29L 17.2158 29ZM 15.1172 28.0361C 15.5137 28.0361 15.8896 27.9336 16.2451 27.7285C 16.6006 27.5234 16.8581 27.2568 17.0176 26.9287L 17.0176 25.4111L 16.0264 25.4111C 14.4769 25.4111 13.7021 25.8646 13.7021 26.7715C 13.7021 27.168 13.8343 27.4779 14.0986 27.7012C 14.363 27.9245 14.7025 28.0361 15.1172 28.0361ZM 21.6387 29L 20.374 29L 20.374 18.5L 21.6387 18.5L 21.6387 29ZM 28.2354 28.2686C 27.7432 28.8473 27.0208 29.1367 26.0684 29.1367C 25.2799 29.1367 24.6784 28.9089 24.2637 28.4531C 23.8535 27.9928 23.6462 27.3138 23.6416 26.416L 23.6416 21.6035L 24.9062 21.6035L 24.9062 26.3818C 24.9062 27.5029 25.362 28.0635 26.2734 28.0635C 27.2396 28.0635 27.8822 27.7035 28.2012 26.9834L 28.2012 21.6035L 29.4658 21.6035L 29.4658 29L 28.2627 29L 28.2354 28.2686ZM 34.4629 29.1367C 33.4603 29.1367 32.6445 28.8086 32.0156 28.1523C 31.3867 27.4915 31.0723 26.6097 31.0723 25.5068L 31.0723 25.2744C 31.0723 24.5407 31.2113 23.8867 31.4893 23.3125C 31.7718 22.7337 32.1637 22.2826 32.665 21.959C 33.1709 21.6309 33.7178 21.4668 34.3057 21.4668C 35.2673 21.4668 36.0146 21.7835 36.5479 22.417C 37.0811 23.0505 37.3477 23.9574 37.3477 25.1377L 37.3477 25.6641L 32.3369 25.6641C 32.3551 26.3932 32.5671 26.9834 32.9727 27.4346C 33.3828 27.8812 33.9023 28.1045 34.5312 28.1045C 34.9779 28.1045 35.3561 28.0133 35.666 27.8311C 35.9759 27.6488 36.2471 27.4072 36.4795 27.1064L 37.252 27.708C 36.6322 28.6605 35.7025 29.1367 34.4629 29.1367ZM 34.3057 22.5059C 33.7952 22.5059 33.3669 22.6927 33.0205 23.0664C 32.6742 23.4355 32.46 23.9551 32.3779 24.625L 36.083 24.625L 36.083 24.5293C 36.0465 23.8867 35.8734 23.39 35.5635 23.0391C 35.2536 22.6836 34.8343 22.5059 34.3057 22.5059ZM 43.124 27.0381C 43.124 26.6963 42.9941 26.432 42.7344 26.2451C 42.4792 26.0537 42.0303 25.8896 41.3877 25.7529C 40.7497 25.6162 40.2415 25.4521 39.8633 25.2607C 39.4896 25.0693 39.2116 24.8415 39.0293 24.5771C 38.8516 24.3128 38.7627 23.9984 38.7627 23.6338C 38.7627 23.0277 39.0179 22.515 39.5283 22.0957C 40.0433 21.6764 40.6995 21.4668 41.4971 21.4668C 42.3356 21.4668 43.0146 21.6833 43.5342 22.1162C 44.0583 22.5492 44.3203 23.1029 44.3203 23.7773L 43.0488 23.7773C 43.0488 23.431 42.9007 23.1325 42.6045 22.8818C 42.3128 22.6312 41.9437 22.5059 41.4971 22.5059C 41.0368 22.5059 40.6768 22.6061 40.417 22.8066C 40.1572 23.0072 40.0273 23.2692 40.0273 23.5928C 40.0273 23.8981 40.1481 24.1283 40.3896 24.2832C 40.6312 24.4382 41.0664 24.5863 41.6953 24.7275C 42.3288 24.8688 42.8415 25.0374 43.2334 25.2334C 43.6253 25.4294 43.9147 25.6663 44.1016 25.9443C 44.293 26.2178 44.3887 26.5527 44.3887 26.9492C 44.3887 27.61 44.1243 28.141 43.5957 28.542C 43.0671 28.9385 42.3812 29.1367 41.5381 29.1367C 40.9456 29.1367 40.4215 29.0319 39.9658 28.8223C 39.5101 28.6126 39.1523 28.321 38.8926 27.9473C 38.6374 27.569 38.5098 27.1611 38.5098 26.7236L 39.7744 26.7236C 39.7972 27.1475 39.9658 27.4847 40.2803 27.7354C 40.5993 27.9814 41.0186 28.1045 41.5381 28.1045C 42.0166 28.1045 42.3994 28.0088 42.6865 27.8174C 42.9782 27.6214 43.124 27.3617 43.124 27.0381ZM 51.2246 19.8125L 51.2246 21.6035L 52.6055 21.6035L 52.6055 22.5811L 51.2246 22.5811L 51.2246 27.168C 51.2246 27.4642 51.2861 27.6875 51.4092 27.8379C 51.5322 27.9837 51.7419 28.0566 52.0381 28.0566C 52.1839 28.0566 52.3844 28.0293 52.6396 27.9746L 52.6396 29C 52.307 29.0911 51.9834 29.1367 51.6689 29.1367C 51.1038 29.1367 50.6777 28.9658 50.3906 28.624C 50.1035 28.2822 49.96 27.7969 49.96 27.168L 49.96 22.5811L 48.6133 22.5811L 48.6133 21.6035L 49.96 21.6035L 49.96 19.8125L 51.2246 19.8125ZM 53.6172 25.2334C 53.6172 24.5088 53.7585 23.8571 54.041 23.2783C 54.3281 22.6995 54.7246 22.2529 55.2305 21.9385C 55.7409 21.624 56.3219 21.4668 56.9736 21.4668C 57.9808 21.4668 58.7943 21.8154 59.4141 22.5127C 60.0384 23.21 60.3506 24.1374 60.3506 25.2949L 60.3506 25.3838C 60.3506 26.1038 60.2116 26.751 59.9336 27.3252C 59.6602 27.8949 59.266 28.3392 58.751 28.6582C 58.2406 28.9772 57.6527 29.1367 56.9873 29.1367C 55.9847 29.1367 55.1712 28.7881 54.5469 28.0908C 53.9271 27.3936 53.6172 26.4707 53.6172 25.3223L 53.6172 25.2334ZM 54.8887 25.3838C 54.8887 26.2041 55.0778 26.8626 55.4561 27.3594C 55.8389 27.8561 56.3493 28.1045 56.9873 28.1045C 57.6299 28.1045 58.1403 27.8538 58.5186 27.3525C 58.8968 26.8467 59.0859 26.1403 59.0859 25.2334C 59.0859 24.4222 58.8923 23.766 58.5049 23.2646C 58.1221 22.7588 57.6117 22.5059 56.9736 22.5059C 56.3493 22.5059 55.8457 22.7542 55.4629 23.251C 55.0801 23.7477 54.8887 24.4587 54.8887 25.3838ZM 4.13184 45.1045C 4.58301 45.1045 4.97721 44.9678 5.31445 44.6943C 5.65169 44.4209 5.83854 44.0791 5.875 43.6689L 7.07129 43.6689C 7.0485 44.0928 6.90267 44.4961 6.63379 44.8789C 6.36491 45.2617 6.00488 45.5671 5.55371 45.7949C 5.1071 46.0228 4.63314 46.1367 4.13184 46.1367C 3.12467 46.1367 2.32259 45.8018 1.72559 45.1318C 1.13314 44.4574 0.836914 43.5368 0.836914 42.3701L 0.836914 42.1582C 0.836914 41.4382 0.969076 40.7979 1.2334 40.2373C 1.49772 39.6768 1.87598 39.2415 2.36816 38.9316C 2.86491 38.6217 3.45052 38.4668 4.125 38.4668C 4.95443 38.4668 5.64258 38.7152 6.18945 39.2119C 6.74089 39.7087 7.03483 40.3535 7.07129 41.1465L 5.875 41.1465C 5.83854 40.668 5.65625 40.276 5.32812 39.9707C 5.00456 39.6608 4.60352 39.5059 4.125 39.5059C 3.48242 39.5059 2.9834 39.7383 2.62793 40.2031C 2.27702 40.6634 2.10156 41.3311 2.10156 42.2061L 2.10156 42.4453C 2.10156 43.2975 2.27702 43.9538 2.62793 44.4141C 2.97884 44.8743 3.48014 45.1045 4.13184 45.1045ZM 13.0596 46C 12.9867 45.8542 12.9274 45.5944 12.8818 45.2207C 12.2939 45.8314 11.5921 46.1367 10.7764 46.1367C 10.0472 46.1367 9.44792 45.9316 8.97852 45.5215C 8.51367 45.1068 8.28125 44.5827 8.28125 43.9492C 8.28125 43.179 8.57292 42.582 9.15625 42.1582C 9.74414 41.7298 10.569 41.5156 11.6309 41.5156L 12.8613 41.5156L 12.8613 40.9346C 12.8613 40.4925 12.7292 40.1416 12.4648 39.8818C 12.2005 39.6175 11.8109 39.4854 11.2959 39.4854C 10.8447 39.4854 10.4665 39.5993 10.1611 39.8271C 9.85579 40.055 9.70312 40.3307 9.70312 40.6543L 8.43164 40.6543C 8.43164 40.2852 8.56152 39.9297 8.82129 39.5879C 9.08561 39.2415 9.44108 38.9681 9.8877 38.7676C 10.3389 38.5671 10.8333 38.4668 11.3711 38.4668C 12.2233 38.4668 12.891 38.681 13.374 39.1094C 13.8571 39.5332 14.1077 40.1188 14.126 40.8662L 14.126 44.2705C 14.126 44.9495 14.2126 45.4896 14.3857 45.8906L 14.3857 46L 13.0596 46ZM 10.9609 45.0361C 11.3574 45.0361 11.7334 44.9336 12.0889 44.7285C 12.4443 44.5234 12.7018 44.2568 12.8613 43.9287L 12.8613 42.4111L 11.8701 42.4111C 10.3206 42.4111 9.5459 42.8646 9.5459 43.7715C 9.5459 44.168 9.67806 44.4779 9.94238 44.7012C 10.2067 44.9245 10.5462 45.0361 10.9609 45.0361ZM 17.8242 36.8125L 17.8242 38.6035L 19.2051 38.6035L 19.2051 39.5811L 17.8242 39.5811L 17.8242 44.168C 17.8242 44.4642 17.8857 44.6875 18.0088 44.8379C 18.1318 44.9837 18.3415 45.0566 18.6377 45.0566C 18.7835 45.0566 18.984 45.0293 19.2393 44.9746L 19.2393 46C 18.9066 46.0911 18.583 46.1367 18.2686 46.1367C 17.7035 46.1367 17.2773 45.9658 16.9902 45.624C 16.7031 45.2822 16.5596 44.7969 16.5596 44.168L 16.5596 39.5811L 15.2129 39.5811L 15.2129 38.6035L 16.5596 38.6035L 16.5596 36.8125L 17.8242 36.8125ZM 23.7578 46.1367C 22.7552 46.1367 21.9395 45.8086 21.3105 45.1523C 20.6816 44.4915 20.3672 43.6097 20.3672 42.5068L 20.3672 42.2744C 20.3672 41.5407 20.5062 40.8867 20.7842 40.3125C 21.0667 39.7337 21.4587 39.2826 21.96 38.959C 22.4658 38.6309 23.0127 38.4668 23.6006 38.4668C 24.5622 38.4668 25.3096 38.7835 25.8428 39.417C 26.376 40.0505 26.6426 40.9574 26.6426 42.1377L 26.6426 42.6641L 21.6318 42.6641C 21.6501 43.3932 21.862 43.9834 22.2676 44.4346C 22.6777 44.8812 23.1973 45.1045 23.8262 45.1045C 24.2728 45.1045 24.651 45.0133 24.9609 44.8311C 25.2708 44.6488 25.542 44.4072 25.7744 44.1064L 26.5469 44.708C 25.9271 45.6605 24.9974 46.1367 23.7578 46.1367ZM 23.6006 39.5059C 23.0902 39.5059 22.6618 39.6927 22.3154 40.0664C 21.9691 40.4355 21.7549 40.9551 21.6729 41.625L 25.3779 41.625L 25.3779 41.5293C 25.3415 40.8867 25.1683 40.39 24.8584 40.0391C 24.5485 39.6836 24.1292 39.5059 23.6006 39.5059ZM 27.8115 42.2402C 27.8115 41.0872 28.0781 40.1712 28.6113 39.4922C 29.1445 38.8086 29.8509 38.4668 30.7305 38.4668C 31.6328 38.4668 32.3369 38.7858 32.8428 39.4238L 32.9043 38.6035L 34.0596 38.6035L 34.0596 45.8223C 34.0596 46.7793 33.7747 47.5335 33.2051 48.085C 32.64 48.6364 31.8789 48.9121 30.9219 48.9121C 30.3887 48.9121 29.8669 48.7982 29.3564 48.5703C 28.846 48.3424 28.4564 48.0303 28.1875 47.6338L 28.8438 46.875C 29.3861 47.5449 30.0492 47.8799 30.833 47.8799C 31.4482 47.8799 31.9268 47.7067 32.2686 47.3604C 32.6149 47.014 32.7881 46.5264 32.7881 45.8975L 32.7881 45.2617C 32.2822 45.8451 31.5918 46.1367 30.7168 46.1367C 29.8509 46.1367 29.1491 45.7881 28.6113 45.0908C 28.0781 44.3936 27.8115 43.4434 27.8115 42.2402ZM 29.083 42.3838C 29.083 43.2178 29.2539 43.874 29.5957 44.3525C 29.9375 44.8265 30.416 45.0635 31.0312 45.0635C 31.8288 45.0635 32.4144 44.7012 32.7881 43.9766L 32.7881 40.5996C 32.4007 39.8932 31.8197 39.54 31.0449 39.54C 30.4297 39.54 29.9489 39.7793 29.6025 40.2578C 29.2562 40.7363 29.083 41.445 29.083 42.3838ZM 35.6387 42.2334C 35.6387 41.5088 35.7799 40.8571 36.0625 40.2783C 36.3496 39.6995 36.7461 39.2529 37.252 38.9385C 37.7624 38.624 38.3434 38.4668 38.9951 38.4668C 40.0023 38.4668 40.8158 38.8154 41.4355 39.5127C 42.0599 40.21 42.3721 41.1374 42.3721 42.2949L 42.3721 42.3838C 42.3721 43.1038 42.2331 43.751 41.9551 44.3252C 41.6816 44.8949 41.2874 45.3392 40.7725 45.6582C 40.262 45.9772 39.6742 46.1367 39.0088 46.1367C 38.0062 46.1367 37.1927 45.7881 36.5684 45.0908C 35.9486 44.3936 35.6387 43.4707 35.6387 42.3223L 35.6387 42.2334ZM 36.9102 42.3838C 36.9102 43.2041 37.0993 43.8626 37.4775 44.3594C 37.8604 44.8561 38.3708 45.1045 39.0088 45.1045C 39.6514 45.1045 40.1618 44.8538 40.54 44.3525C 40.9183 43.8467 41.1074 43.1403 41.1074 42.2334C 41.1074 41.4222 40.9137 40.766 40.5264 40.2646C 40.1436 39.7588 39.6331 39.5059 38.9951 39.5059C 38.3708 39.5059 37.8672 39.7542 37.4844 40.251C 37.1016 40.7477 36.9102 41.4587 36.9102 42.3838ZM 47.5332 39.7383C 47.3418 39.7064 47.1344 39.6904 46.9111 39.6904C 46.0817 39.6904 45.5189 40.0436 45.2227 40.75L 45.2227 46L 43.958 46L 43.958 38.6035L 45.1885 38.6035L 45.209 39.458C 45.6237 38.7972 46.2116 38.4668 46.9727 38.4668C 47.2188 38.4668 47.4056 38.4987 47.5332 38.5625L 47.5332 39.7383ZM 50.0762 46L 48.8115 46L 48.8115 38.6035L 50.0762 38.6035L 50.0762 46ZM 48.709 36.6416C 48.709 36.4365 48.7705 36.2633 48.8936 36.1221C 49.0212 35.9808 49.208 35.9102 49.4541 35.9102C 49.7002 35.9102 49.887 35.9808 50.0146 36.1221C 50.1423 36.2633 50.2061 36.4365 50.2061 36.6416C 50.2061 36.8467 50.1423 37.0176 50.0146 37.1543C 49.887 37.291 49.7002 37.3594 49.4541 37.3594C 49.208 37.3594 49.0212 37.291 48.8936 37.1543C 48.7705 37.0176 48.709 36.8467 48.709 36.6416ZM 55.1758 46.1367C 54.1732 46.1367 53.3574 45.8086 52.7285 45.1523C 52.0996 44.4915 51.7852 43.6097 51.7852 42.5068L 51.7852 42.2744C 51.7852 41.5407 51.9242 40.8867 52.2021 40.3125C 52.4847 39.7337 52.8766 39.2826 53.3779 38.959C 53.8838 38.6309 54.4307 38.4668 55.0186 38.4668C 55.9801 38.4668 56.7275 38.7835 57.2607 39.417C 57.7939 40.0505 58.0605 40.9574 58.0605 42.1377L 58.0605 42.6641L 53.0498 42.6641C 53.068 43.3932 53.2799 43.9834 53.6855 44.4346C 54.0957 44.8812 54.6152 45.1045 55.2441 45.1045C 55.6908 45.1045 56.069 45.0133 56.3789 44.8311C 56.6888 44.6488 56.96 44.4072 57.1924 44.1064L 57.9648 44.708C 57.3451 45.6605 56.4154 46.1367 55.1758 46.1367ZM 55.0186 39.5059C 54.5081 39.5059 54.0798 39.6927 53.7334 40.0664C 53.387 40.4355 53.1729 40.9551 53.0908 41.625L 56.7959 41.625L 56.7959 41.5293C 56.7594 40.8867 56.5863 40.39 56.2764 40.0391C 55.9665 39.6836 55.5472 39.5059 55.0186 39.5059ZM 63.8369 44.0381C 63.8369 43.6963 63.707 43.432 63.4473 43.2451C 63.1921 43.0537 62.7432 42.8896 62.1006 42.7529C 61.4626 42.6162 60.9544 42.4521 60.5762 42.2607C 60.2025 42.0693 59.9245 41.8415 59.7422 41.5771C 59.5645 41.3128 59.4756 40.9984 59.4756 40.6338C 59.4756 40.0277 59.7308 39.515 60.2412 39.0957C 60.7562 38.6764 61.4124 38.4668 62.21 38.4668C 63.0485 38.4668 63.7275 38.6833 64.2471 39.1162C 64.7712 39.5492 65.0332 40.1029 65.0332 40.7773L 63.7617 40.7773C 63.7617 40.431 63.6136 40.1325 63.3174 39.8818C 63.0257 39.6312 62.6566 39.5059 62.21 39.5059C 61.7497 39.5059 61.3896 39.6061 61.1299 39.8066C 60.8701 40.0072 60.7402 40.2692 60.7402 40.5928C 60.7402 40.8981 60.861 41.1283 61.1025 41.2832C 61.3441 41.4382 61.7793 41.5863 62.4082 41.7275C 63.0417 41.8688 63.5544 42.0374 63.9463 42.2334C 64.3382 42.4294 64.6276 42.6663 64.8145 42.9443C 65.0059 43.2178 65.1016 43.5527 65.1016 43.9492C 65.1016 44.61 64.8372 45.141 64.3086 45.542C 63.7799 45.9385 63.0941 46.1367 62.251 46.1367C 61.6585 46.1367 61.1344 46.0319 60.6787 45.8223C 60.223 45.6126 59.8652 45.321 59.6055 44.9473C 59.3503 44.569 59.2227 44.1611 59.2227 43.7236L 60.4873 43.7236C 60.5101 44.1475 60.6787 44.4847 60.9932 44.7354C 61.3122 44.9814 61.7314 45.1045 62.251 45.1045C 62.7295 45.1045 63.1123 45.0088 63.3994 44.8174C 63.6911 44.6214 63.8369 44.3617 63.8369 44.0381Z"/>
</defs>
</svg>
